<svg aria-hidden="true" style="width:0;height:0;position:absolute;overflow:hidden" xmlns="http://www.w3.org/2000/svg"><defs><symbol id="icon-action" viewBox="0 0 32 32"><path fill="#fff" style="fill:var(--color1,#fff)" d="m4.007 20.005.5 3c.021.127.09.241.193.318l3.875 2.906.45 1.352a.501.501 0 0 0 .559.335h-.003l.24-.04-.296.888a.498.498 0 0 0-.026.158v1.5a.5.5 0 0 0 .5.5h12a.5.5 0 0 0 .484-.626l.001.003-.301-1.197 3.068 1.753a.498.498 0 0 0 .663-.155l.001-.002s1.041-1.574 1.046-1.586l.524-2.07a.5.5 0 0 0-.259-.567l-.003-.001-1-.5a.497.497 0 0 0-.578.093s-1.091 1.115-1.115 1.181l-1.216-.68 2.058-2.316a.495.495 0 0 0 .124-.28v-.002l.5-5c.002-.015.002-.031.002-.049a.5.5 0 0 0-.011-.103l.001.003-.782-3.913a4.173 4.173 0 0 0-3.041-3.213l-.029-.006-.998-.25-2.786-.928-.355-.71v-.757l.3-.225a.5.5 0 0 0 .2-.4v-1a.5.5 0 0 0 .5-.5V4.997c.317-.943.5-2.029.5-3.158v-.42a.5.5 0 0 0-.5-.5H16.4a3.879 3.879 0 0 0-2.699 1.089l.001-.001-.812.406a2.523 2.523 0 0 0-.015 4.506l.014.007.11.055a.5.5 0 0 0 .496.439v1c0 .163.078.308.199.399l.001.001.3.225v.757l-.362.724-2.234.894h-.327a4.82 4.82 0 0 0-4.75 3.999l-.004.029-.294 1.762-1.918 2.398a.5.5 0 0 0-.103.398v-.003zm6.493 8.999.438-1.314 1.644-.274a.501.501 0 0 0 .391-.332l.001-.004.333-.997 3.672 1.469-.395.592a.5.5 0 0 0 .103.668l.001.001 1.387 1.11H10.5v-.919zm.654-10.821.214 1.711-1.077-.602.863-1.11zm4.146-3.66a1.167 1.167 0 0 0 1.403-.002l-.003.002a4.53 4.53 0 0 0 1.745-2.897l.003-.026.05.016a12.663 12.663 0 0 1-1.002 4.78l.031-.083a12.672 12.672 0 0 1-.907 1.787l.032-.056-.152-.03v-1.59a.5.5 0 0 0-1 0v1.61l-1.442.36-1.834-.917a.504.504 0 0 0-.154-.048h-.003L12 16.893v-4.63l1.558-.623a4.534 4.534 0 0 0 1.731 2.877l.011.008zm4.789 14.604-.626.626-1.792-1.434.65-.976.48-.16.013-.005 1.751 1.001-.012.021-.464.927zm-3.376-6.245 1.204-1.324a13.762 13.762 0 0 0 2.462-3.813l.034-.089-.895 3.131a.493.493 0 0 0-.019.137v3.515l-2.786-1.557zm3.787-1.889.628-2.197.372.745v3.222l-1 1.4v-3.17zm0-8.703v.01c0 3.312-1.262 6.329-3.332 8.596l.009-.01-1.359 1.496-1.006-.562.653-.653a13.727 13.727 0 0 0 4.024-9.193l.001-.026 1.01.337v.006zm-8.049 8.209-.239-1.911 1.564.782a.502.502 0 0 0 .345.038l1.891-.472.041.008a12.982 12.982 0 0 1-1.295 1.515l-.854.854-1.454-.812zm-2.781-.408 4.943 2.762-.528.793a.5.5 0 0 0 .831.556l.001-.002.572-.858.703.392-.607.911a.5.5 0 0 0 .831.556l.001-.002.651-.976 1.732.968-.736 1.182-.221.074a.504.504 0 0 0-.257.195l-.001.002-.038.057-4.265-1.706-1.427-1.427a.499.499 0 0 0-.354-.146H10.24l-1.603-2.004L9.67 20.09zm11.037 9.832.146-.146a.502.502 0 0 0 .094-.13l.228-.454.184.731h-.652zm4.636-.165-6.054-3.46.384-.617 6.111 3.415-.441.662zm.756-2.726.319.159-.244.977-.777-.434.702-.702zm-2.736-13.539c.429.428.734.978.861 1.594l.003.02.768 3.84-.476 4.764-2.097 2.359-1.469-.821 1.454-2.036a.5.5 0 0 0 .093-.291v-3.5a.502.502 0 0 0-.054-.226l.001.003-.947-1.894v-4.742l.396.099a3.169 3.169 0 0 1 1.468.831zM14 6.423v-1h4v1h-.882l-.894-.447a.497.497 0 0 0-.45.001l.003-.001-.894.447h-.882zm-1.5-1.75v-.005c0-.591.339-1.103.833-1.353l.009-.004.882-.441a.502.502 0 0 0 .13-.094 2.885 2.885 0 0 1 2.052-.853h2.093a9.213 9.213 0 0 1-.384 2.565l.017-.065H13.5a.5.5 0 0 0-.5.5v.879a1.51 1.51 0 0 1-.5-1.124v-.005zm2.5 2.75a.499.499 0 0 0 .224-.053L16 6.982l.776.388a.496.496 0 0 0 .224.053h.5v.75l-1 .75h-1l-1-.75v-.75h.5zm.034 2.4c.086.065.192.1.3.1h1.333a.5.5 0 0 0 .3-.1L17 9.798v.125c0 .078.018.154.053.224l.444.887a3.515 3.515 0 0 1-1.388 2.683l-.009.006c-.028.021-.062.033-.1.033s-.072-.012-.1-.033a3.515 3.515 0 0 1-1.397-2.683v-.006l.444-.887A.499.499 0 0 0 15 9.923v-.125l.034.025zM6.89 17.735a.49.49 0 0 0 .103-.23l.315-1.89a3.826 3.826 0 0 1 3.688-3.191H11v4.328l-1.735 2.23a.498.498 0 0 0-.249.319l-.001.003-1.41 1.812a.496.496 0 0 0 .004.62l-.001-.001 2 2.5a.499.499 0 0 0 .39.188h1.293l1.135 1.135-.307.921-2.282.38-.365-1.095a.506.506 0 0 0-.173-.241l-.001-.001-3.84-2.88-.43-2.582 1.86-2.326z"/></symbol><symbol id="icon-comedy" viewBox="0 0 32 32"><path fill="#fff" style="fill:var(--color1,#fff)" d="M22.725 19.656a.693.693 0 0 0-.982.053l-.001.001c-1.45 1.622-3.544 2.551-5.742 2.551s-4.292-.929-5.743-2.551a.696.696 0 1 0-1.036.929c1.714 1.916 4.185 3.014 6.779 3.014s5.065-1.099 6.779-3.014a.693.693 0 0 0-.054-.982l-.001-.001z"/><path fill="#fff" style="fill:var(--color1,#fff)" d="M16 0C7.178 0 0 7.178 0 16s7.178 16 16 16 16-7.178 16-16S24.822 0 16 0zm0 30.609C7.944 30.609 1.391 24.056 1.391 16S7.944 1.391 16 1.391c8.056 0 14.609 6.553 14.609 14.609S24.056 30.609 16 30.609z"/><path fill="#fff" style="fill:var(--color1,#fff)" d="M21.565 11.13a3.482 3.482 0 0 0-3.478 3.478.696.696 0 0 0 1.392.001v-.001a2.09 2.09 0 0 1 2.087-2.087 2.09 2.09 0 0 1 2.087 2.087.696.696 0 0 0 1.392.001v-.001a3.482 3.482 0 0 0-3.478-3.478zm-9.043 3.479a.696.696 0 0 0 1.392.001v-.001c0-1.918-1.56-3.478-3.478-3.478s-3.478 1.56-3.478 3.478a.696.696 0 0 0 1.392.001v-.001a2.09 2.09 0 0 1 2.087-2.087 2.09 2.09 0 0 1 2.087 2.087z"/></symbol><symbol id="icon-documentary" viewBox="0 0 32 32"><path fill="#fff" style="fill:var(--color1,#fff)" d="M9.449 21.767h.907a.375.375 0 0 0 0-.75h-.907a.375.375 0 0 0 0 .75zm4.294.949h1.16a.375.375 0 0 0 0-.75h-1.16a.375.375 0 0 0-.001.75h.001zm6.573 1.962h.97a.375.375 0 0 0 .001-.75h-.971a.375.375 0 0 0 0 .75zm-9.977-.186c0 .207.168.375.375.375h.907a.375.375 0 0 0 .001-.75h-.908a.375.375 0 0 0-.375.375zm15.296.823c0 .207.168.375.375.375h1.097a.375.375 0 0 0 .001-.75H26.01a.375.375 0 0 0-.375.375zM5.674 24.94H4.577a.375.375 0 0 0-.001.75H5.674a.375.375 0 0 0 .001-.75h-.001zm12.056-3.057h.907a.375.375 0 0 0 .001-.75h-.908a.375.375 0 0 0 0 .75zm-3.061-5.206h2.662a.375.375 0 0 0 .375-.375v-1.79a1.706 1.706 0 0 0-3.412 0v1.79c0 .207.168.375.375.375zm.375-2.165a.956.956 0 1 1 1.912 0v1.415h-1.913v-1.415zm-1.973-2.555a.375.375 0 0 0-.375.375v.288a.375.375 0 0 0 .75.001v-.289a.375.375 0 0 0-.375-.375zm0 1.424a.375.375 0 0 0-.375.375V16.1a.375.375 0 0 0 .75.001V13.756a.375.375 0 0 0-.375-.375zm13.145 6.113a.375.375 0 0 0-.375-.375h-1.033a.375.375 0 0 0-.001.75H25.841a.375.375 0 0 0 .375-.375zM7.852 17.079a.375.375 0 0 0-.375-.375H6.443a.375.375 0 0 0-.001.75h1.035a.375.375 0 0 0 .375-.375z"/><path fill="#fff" style="fill:var(--color1,#fff)" d="M29.021 28.933V15.76c.544-.015.98-.46.981-1.006v-3.416a.375.375 0 0 0-.375-.375h-1.416a.375.375 0 0 0-.375.375v.764h-.764v-.764a.375.375 0 0 0-.375-.375h-1.416a.375.375 0 0 0-.375.375v.764h-.764v-.764a.375.375 0 0 0-.375-.375h-1.416a.375.375 0 0 0-.375.375v3.416c.001.546.436.991.979 1.006h.001v2.162h-1.553a.375.375 0 0 0-.375.375v.764H20.7v-8.013h.636a.375.375 0 0 0 .274-.63l-5.236-5.654v-.905l2.59-1.127a.376.376 0 0 0 .012-.683l-.002-.001L16.328.806a.376.376 0 0 0-.704.179v3.779l-5.238 5.654a.376.376 0 0 0 .275.63h.636v8.012h-.328v-.764a.375.375 0 0 0-.375-.375H9.041v-2.162c.544-.015.98-.46.98-1.006v-3.416a.375.375 0 0 0-.375-.375H8.23a.375.375 0 0 0-.375.375v.764h-.764v-.764a.375.375 0 0 0-.375-.375H5.3a.375.375 0 0 0-.375.375v.764h-.764v-.764a.375.375 0 0 0-.375-.375H2.37a.375.375 0 0 0-.375.375v3.416c.001.547.437.991.98 1.006h.001v13.173a1.817 1.817 0 0 0-1.74 1.812v.269c0 .207.168.375.375.375h28.773a.375.375 0 0 0 .375-.375v-.269a1.816 1.816 0 0 0-1.736-1.812h-.004zM16.375 1.657l1.53.719-1.531.666V1.657zm6.351 13.097v-3.041h.666v.764c0 .207.168.375.375.375h1.514a.375.375 0 0 0 .375-.375v-.764h.666v.764c0 .207.168.375.375.375h1.514a.375.375 0 0 0 .375-.375v-.764h.666v3.041a.259.259 0 0 1-.258.258h-6.011a.258.258 0 0 1-.257-.258zM16 5.464l4.478 4.834h-6.04a.375.375 0 0 0 0 .75h5.513v8.012h-.258v-.764a.375.375 0 0 0-.375-.375h-2.336a.375.375 0 0 0-.375.375v.764h-1.211v-.764a.375.375 0 0 0-.375-.375h-2.336a.375.375 0 0 0-.375.375v.764h-.259v-8.013h1.013a.375.375 0 0 0 0-.75h-1.54l4.478-4.834zm-5.779 13.208v.764c0 .207.168.375.375.375h2.087a.375.375 0 0 0 .375-.375v-.764h1.586v.764c0 .207.168.375.375.375h1.962a.375.375 0 0 0 .375-.375v-.764h1.586v.764c0 .207.168.375.375.375h2.087a.375.375 0 0 0 .375-.375v-.764h1.462v1.966h-.711a.375.375 0 0 0 0 .75h.711v3.084a.375.375 0 0 0 .75.001v-1.63h.964a.375.375 0 0 0 .001-.75h-.965v-3.796a.375.375 0 0 0-.282-.363l-.003-.001v-2.172h4.564v.637h-.992a.375.375 0 0 0 0 .75h.992v10.766h-.932a.375.375 0 0 0-.001.75h.933v.268h-4.28v-3.15a.375.375 0 0 0-.75 0v1.373h-.774a.375.375 0 0 0 0 .75h.774v1.027h-4.747v-1.797h1.594a.375.375 0 0 0 .001-.75H18.49a2.153 2.153 0 0 0-1.034-1.763l-.009-.005-1.256-.75a.373.373 0 0 0-.386.001l.002-.001-1.256.75a2.157 2.157 0 0 0-1.046 1.843v1.202h-1.021a.375.375 0 0 0 0 .75h1.021v.52H8.758V26.64h.711a.375.375 0 0 0 0-.75h-.711v-7.217h1.462zm7.523 7.787v2.472h-3.489v-2.472c.001-.507.271-.95.674-1.196l.006-.003 1.064-.636 1.064.635c.409.249.679.693.68 1.199zM2.748 14.754v-3.041h.665v.764c0 .207.168.375.375.375h1.514a.375.375 0 0 0 .375-.375v-.764h.666v.764c0 .207.168.375.375.375h1.514a.375.375 0 0 0 .375-.375v-.764h.666v3.041a.258.258 0 0 1-.257.258h-6.01a.259.259 0 0 1-.258-.258zm4.549 8.152h.711v3.271a.34.34 0 0 0 0 .177l-.001-.003v1.31h-.964a.375.375 0 0 0-.001.75h.965v.521h-4.28V20.06h.99a.375.375 0 0 0 0-.75h-.989v-3.548h4.564v2.172a.376.376 0 0 0-.284.364v3.858h-.711a.375.375 0 0 0-.001.75h.001zm-5.303 7.733c.056-.54.509-.958 1.06-.958h25.894c.55 0 1.003.418 1.059.953v.005H1.994z"/></symbol><symbol id="icon-drama" viewBox="0 0 32 32"><path fill="#fff" style="fill:var(--color1,#fff)" d="m29.971 1.252-.516-.129C26.841.445 23.841.055 20.749.055s-6.092.389-8.956 1.122l.249-.054-.515.129a2.68 2.68 0 0 0-2.029 2.596v3.733c-2.921.838-5.46 1.913-7.833 3.249l.181-.094-.468.258a2.673 2.673 0 0 0-1.281 3.053l-.004-.019 1.559 5.83c1.449 5.27 5.289 9.419 10.25 11.267l.115.037 1.607.59a4.758 4.758 0 0 0 1.64.286 4.838 4.838 0 0 0 3.698-1.714l.006-.007 1.098-1.311a16.248 16.248 0 0 0 2.448-3.927l.041-.105c.338-.131.66-.301.96-.505l1.401-.981c4.305-3.044 7.082-8.001 7.084-13.606V3.849a2.677 2.677 0 0 0-2.01-2.593l-.019-.004zM19.246 28.316l-1.098 1.312a3.765 3.765 0 0 1-4.184 1.108l.026.008-1.607-.589c-4.748-1.764-8.341-5.645-9.67-10.466l-.026-.109-1.56-5.83a1.599 1.599 0 0 1 .763-1.813l.008-.004.467-.258c2.04-1.157 4.405-2.17 6.886-2.915l.248-.064v1.186a16.58 16.58 0 0 0 5.679 12.499l.019.017a9.876 9.876 0 0 1-2.912.706l-.038.003-4.029.327a.536.536 0 0 0-.181 1.021l.003.001 5.341 2.411a2.673 2.673 0 0 0 3.276-.87l.005-.008 1.169-1.626.153.107a4.779 4.779 0 0 0 2.759.868h.006c.16 0 .316-.02.474-.036a15.313 15.313 0 0 1-1.997 3.038l.019-.023zm-3.104-5.156c.146.107.289.223.439.328l.371.259-1.161 1.616a1.608 1.608 0 0 1-1.979.521l.01.004-3.449-1.554 1.96-.16a11.197 11.197 0 0 0 3.877-1.043l-.068.029zM30.929 9.881c-.002 5.244-2.6 9.881-6.578 12.696l-.049.033-1.401.981c-.6.423-1.346.676-2.151.676s-1.551-.253-2.163-.684l.012.008-1.401-.981c-4.027-2.848-6.625-7.485-6.628-12.728V3.851c0-.749.513-1.379 1.207-1.556l.011-.002.516-.129c2.536-.658 5.447-1.036 8.446-1.036s5.91.378 8.688 1.089l-.242-.053.516.129a1.61 1.61 0 0 1 1.217 1.559v6.031z"/><path fill="#fff" style="fill:var(--color1,#fff)" d="m18.763 10.057.731-.784a4.292 4.292 0 0 0-6.062 0l-.027.027.784.731a3.206 3.206 0 0 1 2.274-.942c.901 0 1.716.371 2.299.968l.001.001zm3.241-.784-.026.027.784.731a3.206 3.206 0 0 1 2.274-.942c.901 0 1.716.371 2.299.968l.001.001.731-.784a4.292 4.292 0 0 0-6.062 0zM7.639 17.822a3.2 3.2 0 0 1 2.491.35l-.014-.008.499-.949a4.286 4.286 0 0 0-5.855 1.568l-.019.033.464.268.482.234a3.207 3.207 0 0 1 1.93-1.491l.022-.005zm18.907-2.778-3.976.724a10.182 10.182 0 0 1-3.643 0l-3.976-.724a.536.536 0 0 0-.437.942l.001.001 4.537 3.711c.459.376 1.051.603 1.696.603s1.238-.228 1.701-.607l-.005.004 4.536-3.712a.537.537 0 0 0-.439-.942l.003-.001v.001zm-4.779 3.824c-.275.226-.631.362-1.018.362s-.743-.137-1.021-.365l.003.002-2.933-2.399 1.938.352c1.331.244 2.694.244 4.025 0l1.938-.352-2.932 2.399z"/></symbol><symbol id="icon-historical" viewBox="0 0 32 32"><path fill="#fff" style="fill:var(--color1,#fff)" d="M20.691 27.666c.404-.437.577-.974.577-1.566 0-.595-.17-1.134-.577-1.572-.397-.426-.898-.623-1.476-.623-.579 0-1.086.191-1.486.616-.409.435-.578.973-.578 1.568 0 .598.168 1.143.579 1.582.398.426.9.623 1.479.623.581 0 1.084-.198 1.481-.628zm-2.129-.706c-.193-.246-.251-.559-.251-.866 0-.304.064-.605.258-.844a.785.785 0 0 1 .641-.308c.266 0 .482.098.646.308.193.244.253.55.253.855s-.064.609-.255.851a.778.778 0 0 1-.645.311.776.776 0 0 1-.648-.308zm-2.028-2.984h-2.079a.486.486 0 0 0-.363.158.513.513 0 0 0-.147.363c0 .147.051.274.156.377a.499.499 0 0 0 .349.147h.485v2.683c0 .154.057.288.164.396l.002.004.004.002a.595.595 0 0 0 .4.163c.151 0 .282-.06.386-.168a.556.556 0 0 0 .163-.396v-2.677h.48c.14 0 .264-.051.363-.152s.152-.225.152-.366a.523.523 0 0 0-.15-.373.493.493 0 0 0-.362-.158h-.003zm-4.028 3.131a.503.503 0 0 1-.313.094c-.176 0-.379-.062-.542-.122-.115-.04-.31-.111-.43-.111a.466.466 0 0 0-.36.159.549.549 0 0 0-.14.368v.016-.001.028c0 .273.214.444.439.552.305.146.656.19.988.19.432 0 .852-.104 1.183-.398.31-.276.455-.63.455-1.046 0-.439-.17-.796-.546-1.026-.232-.149-.549-.248-.813-.324a3.238 3.238 0 0 1-.338-.107l.023.008a.622.622 0 0 1-.138-.062l.003.002c-.034-.028-.072-.067-.072-.115 0-.067.034-.113.085-.152a.412.412 0 0 1 .252-.076c.086 0 .198.028.281.051l.158.055c.097.032.227.073.329.073a.47.47 0 0 0 .361-.163.538.538 0 0 0 .144-.374c0-.246-.168-.414-.372-.525-.253-.136-.545-.182-.829-.182-.416 0-.804.11-1.124.382-.301.26-.454.595-.454.994 0 .38.14.698.46.906a1.7 1.7 0 0 0 .321.156c.158.06.32.111.484.159.15.044.328.095.471.161a.267.267 0 0 1 .115.087c.019.036.03.079.03.124v.005a.254.254 0 0 1-.112.216zm14.211.994c.11.106.241.166.393.166.156 0 .292-.06.398-.175a.574.574 0 0 0 .161-.4v-1.433l1.04-1.423a.563.563 0 0 0-.064-.736.55.55 0 0 0-.392-.163.53.53 0 0 0-.457.244l-.687.986-.682-.986a.522.522 0 0 0-.443-.244h-.015.001-.011a.557.557 0 0 0-.4.168.539.539 0 0 0-.166.391c0 .126.048.241.122.34l1.029 1.423v1.433c0 .159.057.299.172.409zm-1.684-2.759c0-.389-.136-.724-.428-.984-.298-.265-.664-.375-1.061-.375h-1.027a.553.553 0 0 0-.406.166.563.563 0 0 0-.167.401v.014-.001 3.128c0 .158.055.296.166.407l.002.004.002.002a.6.6 0 0 0 .402.163.549.549 0 0 0 .554-.559v-.904l1.001 1.231c.113.14.258.232.441.232a.584.584 0 0 0 .402-.159l.004-.002.002-.003a.584.584 0 0 0 .163-.4.537.537 0 0 0-.145-.366l-.754-.83c.127-.035.257-.083.358-.152.347-.239.492-.596.492-1.012zm-1.227.268a.354.354 0 0 1-.252.104h-.478v-.681h.462c.101 0 .191.026.264.101l.002.002.004.002a.292.292 0 0 1 .106.226v.004a.326.326 0 0 1-.108.242zM7.174 28.108c.108.11.242.164.396.164.156 0 .29-.058.399-.172a.557.557 0 0 0 .161-.393v-3.201a.567.567 0 0 0-.556-.574h-.003a.535.535 0 0 0-.394.177.574.574 0 0 0-.166.398v1.023H5.543v-1.023a.567.567 0 0 0-.161-.403.527.527 0 0 0-.39-.172h-.003a.542.542 0 0 0-.399.177.56.56 0 0 0-.166.398v3.201c0 .156.055.292.166.402.11.108.244.163.399.163s.288-.055.395-.164a.551.551 0 0 0 .159-.4v-1.134h1.468v1.134c0 .156.055.29.163.4zm1.916-3.999a.574.574 0 0 0-.166.398v3.196a.555.555 0 0 0 .56.564.54.54 0 0 0 .397-.164.54.54 0 0 0 .163-.395v-3.201a.562.562 0 0 0-.161-.404.527.527 0 0 0-.39-.172H9.49a.538.538 0 0 0-.398.177z"/><path fill="#fff" style="fill:var(--color1,#fff)" d="M31.37 9.983H7.912l23.03-4.452a.631.631 0 0 0 .499-.743l.001.004-.696-3.594a.631.631 0 0 0-.742-.499l.004-.001-6.6 1.276-.045.008L.512 6.399a.631.631 0 0 0-.499.743l-.001-.004.684 3.534v20.009c0 .348.282.63.63.63h12.05a.63.63 0 1 0 0-1.26h-.017.001H1.956V14.903H30.74v15.148H19.019a.63.63 0 1 0 0 1.26h.017-.001H31.37a.63.63 0 0 0 .63-.63v-20.07a.63.63 0 0 0-.63-.63zm-10.102 3.661 1.802-2.4h3.506l-1.802 2.4h-3.506zm-5.083 0 1.801-2.4h3.508l-1.802 2.4h-3.507zm-5.085 0 1.802-2.4h3.507l-1.801 2.4H11.1zm-5.082 0 1.802-2.4h3.506l-1.802 2.4H6.017zm-4.062-3.031a.645.645 0 0 1 1.29-.001v.001a.645.645 0 0 1-1.29.001v-.001zm6.423-4.449L10.9 8.122l-3.347.647-2.52-1.958 3.346-.647zm4.99-.965 2.52 1.958-3.345.647-2.521-1.958 3.345-.647zm4.991-.964 2.52 1.958-3.344.647-2.52-1.958 3.345-.647zm4.992-.965 2.519 1.958-3.346.647-2.52-1.958 3.347-.647zm6.732 1.143-2.568.496-2.519-1.958 4.631-.896.456 2.356zM3.388 7.128l2.52 1.959-1.81.35A1.9 1.9 0 0 0 1.64 8.97l.009-.005-.28-1.446 2.019-.39zm-1.432 5.278c.191.071.412.112.643.112h.002a1.908 1.908 0 0 0 1.793-1.261l.004-.013h1.845l-1.802 2.4H1.955v-1.239zm24.395 1.238 1.802-2.4h2.586v2.4h-4.388z"/><path fill="#fff" style="fill:var(--color1,#fff)" d="M28.196 21.616a.63.63 0 0 0 .63-.63v-2.578a.63.63 0 0 0-.63-.63H4.146a.63.63 0 0 0-.63.63v2.578c0 .348.282.63.63.63h24.05zm-.63-1.26h-7.012v-1.318h7.012v1.318zm-8.272 0h-7.286v-1.318h7.286v1.318zM4.776 19.038h5.97v1.318h-5.97v-1.318zM16.22 30.053h-.01a.63.63 0 1 0 0 1.26H16.236a.63.63 0 1 0 0-1.26h-.017.001z"/></symbol><symbol id="icon-horror" viewBox="0 0 32 32"><path fill="#fff" style="fill:var(--color1,#fff)" d="M31.168 10.043a1.767 1.767 0 0 0-2.456-.873l.009-.005c-.912.481-1.686.968-2.421 1.505l.055-.038v-.341c0-5.719-4.636-10.354-10.354-10.354S5.647 4.573 5.647 10.291v.068-.003.277a18.923 18.923 0 0 0-2.262-1.416l-.104-.051a1.764 1.764 0 0 0-1.917 2.945l.004.003A21.473 21.473 0 0 1 5.23 16.23l.044.064a48.346 48.346 0 0 1-.916 5.096l-1.39 5.656a.438.438 0 0 0 .347.535h.003l1.635.285a2.065 2.065 0 0 1 1.404.956l.005.009.199.33a2.943 2.943 0 0 0 2.845 1.401l-.013.001.386-.042a2.053 2.053 0 0 1 1.618.532l-.001-.001.257.236a2.92 2.92 0 0 0 1.985.775c.43 0 .838-.093 1.206-.259l-.018.007.343-.152a2.06 2.06 0 0 1 1.679.006l-.013-.005.343.152c.35.159.758.252 1.188.252a2.92 2.92 0 0 0 1.987-.777l-.002.002.257-.236a2.055 2.055 0 0 1 1.626-.531l-.009-.001.385.042a2.935 2.935 0 0 0 2.824-1.39l.007-.013.2-.33a2.06 2.06 0 0 1 1.396-.963l.012-.002 1.636-.286a.439.439 0 0 0 .35-.538l.001.003-1.389-5.653c-.344-1.368-.666-3.099-.892-4.86l-.025-.24a21.514 21.514 0 0 1 3.868-4.151l.037-.03a1.757 1.757 0 0 0 .529-2.081l.004.011zm-1.072 1.379a22.292 22.292 0 0 0-4.144 4.457l-.047.071a.439.439 0 0 0-.067.291 48.648 48.648 0 0 0 1.024 5.692l-.069-.334 1.278 5.2-1.175.205a2.941 2.941 0 0 0-2.001 1.362l-.007.013-.2.33a2.066 2.066 0 0 1-1.996.983l.009.001-.386-.042a2.919 2.919 0 0 0-2.306.759l.002-.002-.257.237a2.048 2.048 0 0 1-2.24.362l.013.005-.343-.152c-.349-.159-.758-.251-1.188-.251s-.838.092-1.206.259l.018-.007-.343.152a2.049 2.049 0 0 1-2.227-.369l.001.001-.258-.237a2.921 2.921 0 0 0-2.317-.755l.013-.001-.386.042a2.062 2.062 0 0 1-1.981-.974l-.005-.009-.199-.33a2.937 2.937 0 0 0-1.99-1.372l-.018-.003-1.175-.205 1.279-5.205c.364-1.446.698-3.264.93-5.115l.024-.24a.44.44 0 0 0-.068-.292l.001.002a22.28 22.28 0 0 0-4.149-4.496l-.039-.031a.889.889 0 0 1 .972-1.48l-.005-.002a17.41 17.41 0 0 1 2.948 1.935l-.032-.025a.437.437 0 0 0 .716-.325v-.001c.01-.39.017-.78.017-1.17a9.48 9.48 0 0 1 18.958 0c0 .39.008.78.017 1.17a.437.437 0 0 0 .716.325l-.001.001a17.309 17.309 0 0 1 2.822-1.865l.095-.046a.887.887 0 0 1 1.229.437l.002.006a.88.88 0 0 1-.263 1.038l-.002.001z"/><path fill="#fff" style="fill:var(--color1,#fff)" d="M12.766 5.531c-1.008 0-1.828 1.002-1.828 2.234s.82 2.234 1.828 2.234 1.828-1.002 1.828-2.234-.819-2.234-1.828-2.234zm0 3.594c-.517 0-.953-.623-.953-1.36s.438-1.359.953-1.359c.515 0 .953.622.953 1.359s-.436 1.359-.953 1.359zm6.468-3.594c-1.008 0-1.828 1.002-1.828 2.234s.82 2.234 1.828 2.234 1.828-1.002 1.828-2.234-.82-2.234-1.828-2.234zm0 3.594c-.517 0-.953-.623-.953-1.36s.436-1.359.953-1.359c.516 0 .953.622.953 1.359s-.438 1.359-.953 1.359zM16 9.719c-1.06 0-1.891 1.27-1.891 2.891S14.94 15.5 16 15.5s1.89-1.27 1.89-2.89-.83-2.891-1.89-2.891zm0 4.906c-.48 0-1.016-.862-1.016-2.015s.536-2.016 1.016-2.016 1.016.862 1.016 2.016-.536 2.015-1.016 2.015z"/></symbol><symbol id="icon-romance" viewBox="0 0 32 32"><path fill="#fff" style="fill:var(--color1,#fff)" d="M31.698 12.904c0-2.305-.876-4.466-2.466-6.086a8.399 8.399 0 0 0-6.039-2.525h-.012a8.58 8.58 0 0 0-7.161 3.844l-.02.032c-1.558-2.349-4.191-3.876-7.181-3.876h-.013.001c-2.295 0-4.44.897-6.039 2.525-1.59 1.62-2.466 3.781-2.466 6.086 0 2.16.625 3.423 1.128 4.438l.054.11c2.08 4.214 13.71 13.88 14.204 14.289l.311.258.312-.257c.012-.01 1.109-.915 2.671-2.27.741.665 1.596 1.407 2.462 2.135l.164.134.311.258.312-.258c.306-.252 7.498-6.2 8.729-8.798l.034-.072c.297-.625.704-1.481.704-2.783 0-1.13-.33-2.199-.957-3.113.421-.902.957-2.204.957-4.072zm-1.588 9.548-.035.074c-1.002 2.114-6.746 7.017-8.156 8.201a108.547 108.547 0 0 1-2.706-2.359l.1.088c-1.711-1.54-3.084-2.88-4.053-3.953a19.44 19.44 0 0 1-.686-.796l-.028-.035a12.31 12.31 0 0 1-.21-.266l-.022-.029a5.653 5.653 0 0 1-.556-.859l-.02-.041c-.286-.578-.61-1.234-.61-2.388 0-2.507 1.931-4.471 4.396-4.471 1.666 0 3.184.918 3.96 2.394l.433.824.433-.824a4.47 4.47 0 0 1 3.955-2.394h.006c1.372 0 2.639.623 3.475 1.709.61.792.932 1.747.932 2.762 0 1.081-.324 1.762-.609 2.363zm-.068-6.306-.007-.006a5.972 5.972 0 0 0-.165-.153l-.029-.026a5.375 5.375 0 0 0-.371-.299l-.015-.011-.016-.011a5.243 5.243 0 0 0-.18-.124l-.028-.019a4.946 4.946 0 0 0-.396-.234l-.028-.014-.024-.012a4.986 4.986 0 0 0-.194-.096l-.025-.012a4.347 4.347 0 0 0-.42-.173l-.036-.011-.03-.01a5.034 5.034 0 0 0-.208-.067l-.02-.006a2.505 2.505 0 0 0-.183-.051l-.036-.008-.043-.011a2.653 2.653 0 0 0-.186-.042l-.033-.006-.037-.007a3.952 3.952 0 0 0-.192-.034l-.03-.004-.012-.002a5.775 5.775 0 0 0-.23-.028l-.044-.004a4.066 4.066 0 0 0-.213-.016l-.014-.001-.042-.002a5.428 5.428 0 0 0-4.621 2.203l-.01.015a5.435 5.435 0 0 0-4.386-2.224h-.008a5.295 5.295 0 0 0-3.819 1.599l-.001.001a5.463 5.463 0 0 0-1.555 3.85c0 1.382.394 2.18.711 2.821l.02.041.06.116.021.038.046.082.029.048.046.077.034.054.048.076.039.059.051.076.043.062.054.078.047.066.058.079.051.069.061.081.055.072c.091.118.154.197.217.275l-.026-.034c.112.139.203.247.294.354l-.018-.022.07.082c.073.085.122.142.173.199l-.02-.023.082.093.27.301-.026-.029c.072.079.129.141.187.202l-.012-.013.093.1.089.094.096.101.093.098.1.104.096.1.106.108.098.1.113.114.098.098.12.12.31.306.009.009.113.11.12.116.121.116.119.114.126.12.122.116.127.12.128.12.132.124.128.12.139.129c.1.094.233.216.366.337l.041.037.23.21c-.521.457-1.253 1.083-1.989 1.703l-.259.212c-1.896-1.592-11.834-10.049-13.64-13.708l-.055-.111c-.481-.971-1.026-2.072-1.026-4.004 0-4.28 3.306-7.632 7.526-7.632h.009a7.618 7.618 0 0 1 6.731 4.046l.02.041.433.824.433-.824c1.3-2.449 3.834-4.088 6.751-4.088h.01c4.22 0 7.526 3.352 7.526 7.632 0 1.407-.334 2.44-.678 3.241zM9.245 0h-.979v3.047h.979V0zm3.739.889-1.28 2.766.888.411 1.28-2.765-.888-.411zM4.528.888l-.888.411 1.279 2.766.888-.411L4.528.888z"/><path fill="#fff" style="fill:var(--color1,#fff)" d="m3.37 13.439.001-.138-.978-.02a7.742 7.742 0 0 0 .202 1.987l.952-.228a6.765 6.765 0 0 1-.177-1.601zm1.326-5.38a7.36 7.36 0 0 0-2.212 4.195l.967.153c.22-1.39.9-2.681 1.916-3.635l-.671-.713zm11.582 8.618c-1.346.624-2.226 1.949-2.297 3.458l.978.046c.054-1.143.717-2.145 1.731-2.616l-.412-.888z"/></symbol><symbol id="icon-sci-fi" viewBox="0 0 32 32"><path fill="#fff" style="fill:var(--color1,#fff)" d="m15.489 20.728-4.212-4.439a.3.3 0 0 1-.083-.209c0-.087.036-.165.095-.22l6.915-6.562c1.372-1.046 3.172-1.315 5.502-.825a.305.305 0 0 1 .237.248v.002c.37 2.354.006 4.137-1.113 5.452a.25.25 0 0 1-.022.024l-6.891 6.54a.304.304 0 0 1-.428-.01zm-3.563-4.637 3.795 3.998 6.659-6.319c.97-1.148 1.289-2.66.996-4.743-2.064-.4-3.591-.161-4.79.746l-6.66 6.318z"/><path fill="#fff" style="fill:var(--color1,#fff)" d="M9.745 15.587a.3.3 0 0 1-.083-.209l.001-.02v.001l.041-.604a3.214 3.214 0 0 1 2.036-2.796l.022-.008.037-.014a5.007 5.007 0 0 1 1.767-.315c.736 0 1.436.156 2.068.436l-.033-.013a.304.304 0 0 1 .073.491l-3.097 2.939a.3.3 0 0 1-.287.073h.002a4.046 4.046 0 0 0-2.245.122l.028-.009a.298.298 0 0 1-.289-.04l.001.001c-.015-.011-.028-.023-.041-.035zm2.122-3.352.106.284a2.605 2.605 0 0 0-1.663 2.268v.007l-.011.17a4.665 4.665 0 0 1 2.009-.038l-.03-.005 2.626-2.492a4.532 4.532 0 0 0-1.331-.195c-.562 0-1.1.1-1.598.283l.032-.01-.138-.272zm4.245 10.06a.301.301 0 0 1-.057-.335l-.001.002c.184-.446.29-.964.29-1.507 0-.247-.022-.489-.064-.725l.004.025a.302.302 0 0 1 .088-.281l3.098-2.94a.303.303 0 0 1 .486.097l.001.002c.204.531.323 1.145.323 1.787 0 .728-.152 1.421-.427 2.048l.013-.033-.016.037a3.213 3.213 0 0 1-2.906 1.908h-.001l-.606.009h-.004a.299.299 0 0 1-.22-.095zm.797-2.493a4.597 4.597 0 0 1-.147 1.975l.17-.003a2.601 2.601 0 0 0 2.352-1.525l.007-.016.292.087-.279-.118a4.675 4.675 0 0 0 .222-2.922l.007.032-2.623 2.49zm2.521-7.031a1.598 1.598 0 1 1 2.26.058l-.001.001a1.597 1.597 0 0 1-2.259-.059l-.001-.001zm1.879-1.783a.99.99 0 0 0-1.722.67.99.99 0 1 0 1.722-.67l.001.001zm-6.946 10.376-3.78-3.983a.3.3 0 0 1 .011-.429l.91-.863a.3.3 0 0 1 .209-.083c.087 0 .165.036.22.094l3.78 3.983a.3.3 0 0 1 .083.209.299.299 0 0 1-.095.22l-.91.864a.3.3 0 0 1-.209.083.302.302 0 0 1-.22-.094zm-3.131-4.181 3.362 3.543.47-.446-3.362-3.543-.47.446z"/><path fill="#fff" style="fill:var(--color1,#fff)" d="M8.469 23.201a1.015 1.015 0 0 1-.133-1.128l-.003.006a7.305 7.305 0 0 0 .497-1.851l.004-.039c.179-1.108.32-1.984 2.267-2.849a.302.302 0 0 1 .343.068l2.929 3.087a.3.3 0 0 1 .05.348l.001-.002a5.083 5.083 0 0 1-.96 1.386l.001-.001c-.621.59-1.257.664-1.994.751a7.587 7.587 0 0 0-1.895.413 1.003 1.003 0 0 1-1.109-.19l-.001-.001zm2.687-5.217c-1.461.691-1.555 1.276-1.721 2.302a8.136 8.136 0 0 1-.562 2.084l.02-.054c-.083.194-.076.369.017.467s.264.111.46.039a7.947 7.947 0 0 1 2.001-.444l.033-.002c.705-.084 1.172-.138 1.647-.588.29-.295.536-.635.726-1.008l.011-.023-2.632-2.773z"/><path fill="#fff" style="fill:var(--color1,#fff)" d="M10.544 21.218a.664.664 0 0 1-.096-.737l-.002.004c.122-.298.205-.611.247-.93.091-.559.17-1.04 1.082-1.491a.299.299 0 0 1 .353.064l1.567 1.651a.3.3 0 0 1 .044.358l.001-.002c-.121.226-.265.42-.435.59a1.69 1.69 0 0 1-1.102.424h-.001a3.76 3.76 0 0 0-.932.204.664.664 0 0 1-.725-.134l-.001-.001zm1.303-2.505c-.445.263-.483.494-.556.939a4.295 4.295 0 0 1-.297 1.097l.011-.028a.156.156 0 0 0-.017.072v.012c0-.007.028-.005.072-.022a4.21 4.21 0 0 1 1.056-.235l.017-.001h.029c.277 0 .531-.099.729-.263l-.002.002c.079-.077.149-.164.208-.257l-1.249-1.315zm2.762-1.366a.3.3 0 0 1-.083-.209c0-.087.036-.165.095-.22l1.29-1.224a.303.303 0 1 1 .418.44l-1.29 1.225a.3.3 0 0 1-.429-.011zm-.977-1.04a.3.3 0 0 1-.083-.209c0-.087.036-.165.094-.22l.567-.538a.303.303 0 1 1 .418.44l-.568.539a.3.3 0 0 1-.209.083.302.302 0 0 1-.22-.094zm1.962 2.066a.3.3 0 0 1-.083-.209c0-.087.036-.165.095-.22l.568-.538a.303.303 0 0 1 .516.216.307.307 0 0 1-.098.224l-.567.538a.3.3 0 0 1-.429-.011z"/></symbol><symbol id="close-burger" viewBox="0 0 32 32"><path d="M23.734 10.304 22.23 8.8l-5.963 5.962L10.305 8.8l-1.504 1.504 5.962 5.962-5.962 5.963 1.504 1.504 5.962-5.963 5.963 5.963 1.504-1.504-5.963-5.963 5.963-5.962z"/></symbol><symbol id="open-burger" viewBox="0 0 32 32"><path d="M6.4 11.734V9.6h19.2v2.134H6.4zm0 5.332h19.2v-2.133H6.4v2.133zm0 5.334h19.2v-2.134H6.4V22.4z"/></symbol><symbol id="search-icon" viewBox="0 0 32 32"><path stroke-linecap="round" stroke-linejoin="round" stroke-width="2" d="m19 19-6-6 6 6ZM15 8a7.002 7.002 0 0 1-9.679 6.467A7 7 0 1 1 15 8Z"/></symbol><symbol id="bell-icon" viewBox="0 0 32 32"><path d="M9.967 23.518a1.72 1.72 0 0 0 1.137-.473c.315-.294.521-.698.583-1.138H8.18c.063.452.279.865.607 1.162a1.72 1.72 0 0 0 1.18.449Z"/><path d="M9.967 23.518a1.72 1.72 0 0 0 1.137-.473c.315-.294.521-.698.583-1.138H8.18c.063.452.279.865.607 1.162a1.72 1.72 0 0 0 1.18.449ZM19.772 18.415a9.821 9.821 0 0 1-1.685-2.01 8.808 8.808 0 0 1-.906-3.298V9.72a7.637 7.637 0 0 0-.107-1.228 4.928 4.928 0 0 1-1.504-.576c.179.586.27 1.197.269 1.81v3.388a9.928 9.928 0 0 0 1.107 4.012c.464.75 1.013 1.44 1.638 2.057H1.396a11.048 11.048 0 0 0 1.638-2.057 9.927 9.927 0 0 0 1.107-4.012V9.72a6.15 6.15 0 0 1 .44-2.315A6.047 6.047 0 0 1 5.857 5.44 5.9 5.9 0 0 1 7.77 4.123a5.797 5.797 0 0 1 2.263-.466 5.691 5.691 0 0 1 3.194.988 5.24 5.24 0 0 1-.174-1.2v-.432a6.99 6.99 0 0 0-2.229-.686v-.864a.926.926 0 0 0-.262-.647.886.886 0 0 0-1.267 0 .926.926 0 0 0-.262.647v.898a7.213 7.213 0 0 0-4.47 2.486 7.509 7.509 0 0 0-1.77 4.873v3.387a8.806 8.806 0 0 1-.906 3.299 9.826 9.826 0 0 1-1.658 2.009.685.685 0 0 0-.228.514v.933c0 .182.07.356.197.485.125.128.296.2.474.2H19.33a.664.664 0 0 0 .474-.2.693.693 0 0 0 .197-.485v-.933a.697.697 0 0 0-.228-.514Z"/><path d="M17.967 7.067c1.84 0 3.333-1.582 3.333-3.534C21.3 1.582 19.808 0 17.967 0c-1.841 0-3.334 1.582-3.334 3.533 0 1.952 1.493 3.534 3.334 3.534Z"/><path d="M17.967 7.067c1.84 0 3.333-1.582 3.333-3.534C21.3 1.582 19.808 0 17.967 0c-1.841 0-3.334 1.582-3.334 3.533 0 1.952 1.493 3.534 3.334 3.534Z"/></symbol><symbol id="add-acount-icon" viewBox="0 0 32 32"><path d="M13.185 12.69a4.184 4.184 0 0 1 1.95-.48h.003c.072 0 .106-.083.053-.13a8.938 8.938 0 0 0-2.486-1.543l-.028-.011c1.488-1.057 2.456-2.775 2.456-4.713C15.133 2.602 12.478 0 9.201 0c-3.276 0-5.93 2.602-5.93 5.813 0 1.938.969 3.656 2.46 4.713-.01.005-.02.007-.03.011a8.944 8.944 0 0 0-2.858 1.89 8.743 8.743 0 0 0-1.927 2.8 8.592 8.592 0 0 0-.705 3.237.184.184 0 0 0 .054.136.192.192 0 0 0 .138.056h1.435a.19.19 0 0 0 .192-.183 6.919 6.919 0 0 1 2.1-4.788 7.197 7.197 0 0 1 5.074-2.06c1.359 0 2.662.368 3.787 1.057a.196.196 0 0 0 .194.007ZM9.204 9.843a4.14 4.14 0 0 1-2.91-1.181A4.008 4.008 0 0 1 5.4 7.354a3.968 3.968 0 0 1 .894-4.393 4.128 4.128 0 0 1 2.91-1.18c1.1 0 2.13.419 2.91 1.18.383.374.686.819.893 1.308a3.968 3.968 0 0 1-.894 4.393 4.136 4.136 0 0 1-2.91 1.18Zm8.815 5.578h-2.013v-1.969a.19.19 0 0 0-.192-.187h-1.342a.19.19 0 0 0-.192.187v1.969h-2.013a.19.19 0 0 0-.192.187v1.313a.19.19 0 0 0 .192.187h2.013v1.97a.19.19 0 0 0 .192.187h1.342a.19.19 0 0 0 .192-.188V17.11h2.013a.19.19 0 0 0 .192-.187V15.61a.19.19 0 0 0-.192-.187Z"/></symbol><symbol id="play-icon" viewBox="0 0 25 32"><path d="M23.631 18.477 3.836 31.602C2.156 32.715 0 31.367 0 29.124V2.873C0 .633 2.153-.718 3.836.399l19.795 13.125c.382.249.7.61.921 1.044s.337.929.337 1.432-.116.997-.337 1.432a2.695 2.695 0 0 1-.921 1.044z"/></symbol><symbol id="star" viewBox="0 0 32 32"><path fill="#ffb800" style="fill:var(--color2,#ffb800)" d="M7.227 30.897c-.772.396-1.649-.298-1.493-1.184l1.661-9.463-7.048-6.714c-.658-.628-.316-1.777.566-1.901l9.799-1.393 4.37-8.657a1.028 1.028 0 0 1 1.855 0l4.37 8.657 9.799 1.393c.882.124 1.224 1.272.566 1.901l-7.049 6.714 1.661 9.463c.156.886-.72 1.581-1.493 1.184l-8.785-4.514-8.779 4.514z"/></symbol></defs></svg>