<svg aria-hidden="true" style="position:absolute;width:0;height:0;overflow:hidden" xmlns="http://www.w3.org/2000/svg">
  <defs>
    <symbol id="icon-Actions" viewBox="0 0 25 32">
      <path fill="#fff" style="fill: var(--color1, #fff)"
        d="M4.552 30.349h-2.835l-0.586 1.36h-1.059l2.623-5.8h0.855l2.631 5.8h-1.051l-0.578-1.36zM4.202 29.534l-1.067-2.484-1.067 2.484h2.134zM8.6 31.774c-0.429 0-0.801-0.087-1.116-0.261-0.31-0.17-0.558-0.421-0.72-0.724l-0.005-0.009c-0.168-0.32-0.253-0.695-0.253-1.124s0.087-0.806 0.261-1.132c0.176-0.321 0.431-0.579 0.74-0.753l0.010-0.005c0.326-0.185 0.7-0.277 1.124-0.277 0.293 0 0.576 0.046 0.847 0.138 0.277 0.092 0.497 0.22 0.66 0.383l-0.285 0.717c-0.158-0.131-0.341-0.238-0.541-0.313l-0.013-0.004c-0.171-0.071-0.37-0.112-0.578-0.114h-0.001c-0.369 0-0.657 0.117-0.863 0.35-0.207 0.228-0.31 0.559-0.31 0.994s0.101 0.766 0.301 0.994c0.207 0.228 0.497 0.342 0.872 0.342 0.19 0 0.383-0.038 0.578-0.114 0.212-0.085 0.395-0.195 0.557-0.329l-0.003 0.003 0.285 0.717c-0.174 0.163-0.399 0.291-0.676 0.383-0.257 0.088-0.553 0.139-0.86 0.139-0.004 0-0.008 0-0.012-0h0.001zM12.151 28.361v1.841c0 0.483 0.225 0.725 0.676 0.725 0.125 0 0.261-0.022 0.407-0.065v0.806c-0.179 0.065-0.396 0.098-0.652 0.098-0.467 0-0.825-0.13-1.075-0.391s-0.375-0.635-0.375-1.124v-1.89h-0.79v-0.766h0.79v-1.002l1.018-0.342v1.344h1.091v0.766h-1.091zM13.942 27.596h1.010v4.113h-1.010v-4.113zM15.009 25.73v1.002h-1.132v-1.002h1.132zM17.931 31.774c-0.418 0-0.787-0.087-1.108-0.261-0.313-0.173-0.563-0.426-0.728-0.732l-0.005-0.010c-0.168-0.326-0.252-0.706-0.252-1.14s0.084-0.812 0.252-1.132c0.168-0.319 0.419-0.575 0.724-0.745l0.009-0.005c0.321-0.174 0.69-0.261 1.108-0.261 0.413 0 0.777 0.087 1.091 0.261 0.313 0.173 0.561 0.43 0.72 0.739l0.005 0.010c0.174 0.32 0.261 0.698 0.261 1.132s-0.087 0.815-0.261 1.14c-0.165 0.316-0.414 0.569-0.716 0.737l-0.009 0.005c-0.315 0.174-0.679 0.261-1.091 0.261zM17.923 30.976c0.348 0 0.611-0.111 0.79-0.334 0.185-0.228 0.277-0.565 0.277-1.010 0-0.44-0.092-0.774-0.277-1.002-0.184-0.234-0.445-0.35-0.782-0.35-0.342 0-0.605 0.117-0.79 0.35-0.184 0.228-0.277 0.562-0.277 1.002 0 0.445 0.090 0.782 0.269 1.010 0.185 0.223 0.448 0.334 0.79 0.334zM23.24 27.49c0.983 0 1.474 0.565 1.474 1.694v2.525h-1.018v-2.476c0-0.326-0.063-0.562-0.187-0.709-0.125-0.152-0.318-0.228-0.578-0.228-0.31 0-0.559 0.1-0.749 0.301-0.19 0.195-0.285 0.456-0.285 0.782v2.33h-1.010v-2.949c0-0.434-0.022-0.823-0.065-1.165h0.953l0.073 0.676c0.136-0.243 0.329-0.439 0.563-0.574l0.007-0.004c0.244-0.136 0.518-0.204 0.823-0.204zM3.788 14.549l0.364 2.182c0.015 0.092 0.066 0.175 0.141 0.231l2.818 2.113 0.328 0.983c0.050 0.146 0.185 0.249 0.345 0.249 0.021 0 0.042-0.002 0.062-0.005l-0.002 0 0.175-0.029-0.216 0.646c-0.012 0.034-0.019 0.074-0.019 0.115v1.091c0 0.201 0.163 0.364 0.364 0.364v0h8.727c0 0 0 0 0 0 0.201 0 0.364-0.163 0.364-0.364 0-0.032-0.004-0.062-0.012-0.092l0.001 0.003-0.219-0.87 2.232 1.275c0.052 0.030 0.114 0.048 0.18 0.048 0.126 0 0.236-0.064 0.302-0.161l0.001-0.001s0.757-1.144 0.76-1.153c0.001-0.003 0.381-1.506 0.381-1.506 0.007-0.026 0.011-0.057 0.011-0.088 0-0.142-0.081-0.264-0.199-0.324l-0.002-0.001-0.727-0.364c-0.047-0.024-0.103-0.038-0.163-0.038-0.1 0-0.191 0.041-0.257 0.107v0s-0.794 0.811-0.811 0.859l-0.884-0.494 1.497-1.684c0.049-0.055 0.082-0.126 0.090-0.204l0-0.002 0.364-3.636c0.001-0.011 0.002-0.023 0.002-0.035 0-0.026-0.003-0.051-0.008-0.075l0 0.002-0.569-2.846c-0.236-1.151-1.1-2.051-2.211-2.337l-0.021-0.005-0.726-0.182-2.026-0.675-0.258-0.516v-0.55l0.218-0.163c0.089-0.067 0.145-0.172 0.145-0.291v0-0.727c0.201 0 0.364-0.163 0.364-0.364v0-1.398c0.231-0.686 0.364-1.476 0.364-2.297 0-0 0-0.001 0-0.001v0-0.304c0-0.201-0.163-0.364-0.364-0.364v0h-1.881c-0.002 0-0.005 0-0.008 0-0.762 0-1.454 0.302-1.963 0.792l0.001-0.001-0.59 0.295c-0.606 0.308-1.014 0.927-1.014 1.641s0.408 1.333 1.004 1.636l0.010 0.005 0.080 0.040c0.023 0.181 0.176 0.319 0.361 0.319v0 0.727c0 0.119 0.057 0.224 0.145 0.29l0.001 0.001 0.218 0.163v0.55l-0.263 0.527-1.625 0.65h-0.238c-1.732 0-3.171 1.257-3.455 2.908l-0.003 0.021-0.214 1.281-1.395 1.744c-0.050 0.062-0.080 0.141-0.080 0.227 0 0.021 0.002 0.042 0.005 0.062l-0-0.002zM8.511 21.094l0.319-0.956 1.196-0.199c0.134-0.023 0.242-0.117 0.284-0.241l0.001-0.003 0.242-0.725 2.671 1.068-0.287 0.431c-0.038 0.057-0.061 0.127-0.061 0.202 0 0.115 0.053 0.217 0.136 0.283l0.001 0.001 1.009 0.807h-5.509v-0.669zM8.986 13.224l0.156 1.245-0.783-0.438 0.627-0.807zM12.002 10.562c0.14 0.105 0.317 0.169 0.509 0.169s0.369-0.063 0.511-0.17l-0.002 0.002c0.668-0.507 1.133-1.252 1.269-2.107l0.002-0.019 0.036 0.012c-0.018 1.236-0.275 2.408-0.729 3.477l0.023-0.061c-0.205 0.491-0.418 0.905-0.66 1.299l0.023-0.041-0.111-0.022v-1.156c0-0.201-0.163-0.364-0.364-0.364s-0.364 0.163-0.364 0.364v0 1.171l-1.049 0.262-1.334-0.667c-0.033-0.017-0.072-0.029-0.112-0.035l-0.002-0-0.049-0.39v-3.368l1.133-0.453c0.144 0.862 0.606 1.596 1.259 2.092l0.008 0.006zM15.485 21.183l-0.456 0.456-1.304-1.043 0.473-0.71 0.349-0.116 0.009-0.004 1.273 0.728-0.008 0.015-0.337 0.674zM13.029 16.641l0.876-0.963c0.736-0.807 1.347-1.746 1.791-2.773l0.025-0.065-0.651 2.277c-0.009 0.030-0.014 0.064-0.014 0.1v0 2.556l-2.026-1.132zM15.783 15.268l0.457-1.598 0.271 0.542v2.343l-0.727 1.018v-2.305zM15.783 8.938c0 0.002 0 0.005 0 0.007 0 2.409-0.918 4.603-2.423 6.251l0.007-0.007-0.989 1.088-0.732-0.409 0.475-0.475c1.726-1.725 2.825-4.078 2.927-6.686l0.001-0.019 0.735 0.245v0.004zM9.93 14.909l-0.174-1.39 1.138 0.569c0.078 0.039 0.167 0.049 0.251 0.027l1.375-0.344 0.030 0.006c-0.299 0.408-0.608 0.767-0.942 1.102l-0.621 0.621-1.057-0.591zM7.907 14.611l3.595 2.009-0.384 0.577c-0.038 0.057-0.061 0.127-0.061 0.202 0 0.201 0.163 0.364 0.364 0.364 0.126 0 0.236-0.064 0.302-0.161l0.001-0.001 0.416-0.624 0.511 0.285-0.442 0.662c-0.038 0.057-0.061 0.127-0.061 0.202 0 0.201 0.163 0.364 0.364 0.364 0.126 0 0.236-0.064 0.302-0.161l0.001-0.001 0.473-0.71 1.26 0.704-0.535 0.86-0.161 0.054c-0.078 0.027-0.143 0.077-0.187 0.142l-0.001 0.001-0.028 0.042-3.102-1.241-1.038-1.038c-0.066-0.066-0.157-0.106-0.257-0.106-0 0-0 0-0 0h-0.916l-1.166-1.458 0.751-0.966zM15.934 21.762l0.106-0.106c0.028-0.028 0.051-0.060 0.068-0.095l0.166-0.33 0.134 0.532h-0.474zM19.306 21.642l-4.403-2.516 0.279-0.449 4.444 2.484-0.321 0.481zM19.855 19.659l0.232 0.116-0.177 0.711-0.565-0.316 0.511-0.511zM17.866 9.813c0.312 0.311 0.534 0.711 0.626 1.159l0.003 0.015 0.559 2.793-0.346 3.465-1.525 1.716-1.069-0.597 1.058-1.481c0.042-0.059 0.068-0.132 0.068-0.211 0-0 0-0 0-0v0-2.545c0-0 0-0 0-0 0-0.059-0.014-0.115-0.039-0.165l0.001 0.002-0.689-1.377v-3.448l0.288 0.072c0.42 0.107 0.781 0.318 1.067 0.604v0zM11.056 4.671v-0.727h2.909v0.727h-0.641l-0.65-0.325c-0.047-0.024-0.103-0.038-0.163-0.038s-0.115 0.014-0.165 0.039l0.002-0.001-0.65 0.325h-0.642zM9.965 3.399c0-0.001 0-0.002 0-0.004 0-0.43 0.246-0.802 0.606-0.984l0.006-0.003 0.641-0.321c0.035-0.017 0.067-0.041 0.095-0.068 0.381-0.383 0.909-0.621 1.493-0.621 0.002 0 0.004 0 0.006 0h1.517c-0.006 0.65-0.103 1.275-0.279 1.866l0.012-0.047h-3.369c-0.201 0-0.364 0.163-0.364 0.364v0 0.639c-0.224-0.202-0.364-0.494-0.364-0.818 0-0.001 0-0.002 0-0.003v0zM11.783 5.399c0.056 0 0.112-0.013 0.163-0.038l0.564-0.282 0.565 0.282c0.050 0.025 0.106 0.038 0.163 0.038h0.364v0.545l-0.727 0.545h-0.727l-0.727-0.545v-0.545h0.364zM11.808 7.144c0.063 0.047 0.139 0.073 0.218 0.073h0.97c0.079 0 0.155-0.026 0.218-0.073l0.024-0.018v0.091c0 0.056 0.013 0.112 0.038 0.163l0.323 0.645c-0.028 0.799-0.418 1.501-1.010 1.951l-0.006 0.005c-0.020 0.015-0.045 0.024-0.073 0.024s-0.053-0.009-0.073-0.024l0 0c-0.598-0.455-0.988-1.157-1.016-1.951l-0-0.004 0.323-0.645c0.025-0.051 0.038-0.106 0.038-0.163v-0.091l0.024 0.018zM5.886 12.898c0.039-0.048 0.065-0.106 0.075-0.167l0.229-1.375c0.224-1.307 1.335-2.293 2.682-2.321l0.003-0v3.147l-1.262 1.622c-0.090 0.049-0.157 0.132-0.181 0.232l-0.001 0.002-1.025 1.318c-0.048 0.061-0.077 0.139-0.077 0.223 0 0.086 0.030 0.165 0.080 0.228l-0.001-0.001 1.455 1.818c0.067 0.083 0.169 0.136 0.284 0.136 0 0 0 0 0 0h0.94l0.826 0.825-0.223 0.67-1.659 0.277-0.265-0.796c-0.024-0.072-0.069-0.132-0.126-0.175l-0.001-0.001-2.793-2.095-0.313-1.878 1.353-1.691z">
      </path>
    </symbol>

    <symbol id="icon-Comedy" viewBox="0 0 29 32">
      <path fill="#fff" style="fill: var(--color1, #fff)"
        d="M3.025 30.217c-0.518 0-0.972-0.111-1.363-0.333-0.385-0.222-0.681-0.536-0.889-0.94-0.207-0.41-0.311-0.889-0.311-1.437 0-0.543 0.104-1.017 0.311-1.422 0.207-0.41 0.504-0.723 0.889-0.94 0.39-0.222 0.844-0.333 1.363-0.333 0.355 0 0.689 0.057 1 0.17 0.316 0.108 0.578 0.262 0.785 0.459l-0.311 0.696c-0.237-0.193-0.474-0.331-0.711-0.415-0.217-0.084-0.469-0.133-0.732-0.133-0.006 0-0.011 0-0.017 0h0.001c-0.508 0-0.903 0.165-1.185 0.496-0.276 0.331-0.415 0.805-0.415 1.422 0 0.622 0.138 1.101 0.415 1.437 0.277 0.331 0.671 0.496 1.185 0.496 0.005 0 0.011 0 0.017 0 0.262 0 0.513-0.046 0.746-0.131l-0.015 0.005c0.237-0.089 0.474-0.23 0.711-0.422l0.311 0.696c-0.207 0.198-0.469 0.353-0.785 0.467-0.311 0.109-0.644 0.163-1 0.163zM7.259 30.209c-0.38 0-0.716-0.079-1.007-0.237-0.284-0.157-0.512-0.387-0.662-0.665l-0.004-0.009c-0.153-0.296-0.23-0.642-0.23-1.037s0.077-0.738 0.23-1.029c0.158-0.296 0.38-0.523 0.666-0.681 0.291-0.158 0.627-0.237 1.007-0.237 0.375 0 0.706 0.079 0.992 0.237 0.284 0.158 0.51 0.391 0.655 0.672l0.004 0.009c0.158 0.291 0.237 0.634 0.237 1.029s-0.079 0.741-0.237 1.037c-0.15 0.287-0.376 0.518-0.651 0.67l-0.008 0.004c-0.286 0.158-0.617 0.237-0.992 0.237zM7.252 29.484c0.316 0 0.555-0.101 0.718-0.304 0.168-0.207 0.252-0.513 0.252-0.918 0-0.4-0.084-0.703-0.252-0.911-0.168-0.212-0.405-0.318-0.711-0.318-0.311 0-0.55 0.106-0.718 0.318-0.168 0.207-0.252 0.511-0.252 0.911 0 0.405 0.081 0.711 0.244 0.918 0.168 0.202 0.407 0.304 0.718 0.304zM14.36 26.314c0.424 0 0.741 0.128 0.948 0.385 0.207 0.252 0.311 0.637 0.311 1.155v2.296h-0.926v-2.266c0-0.296-0.049-0.509-0.148-0.637-0.094-0.133-0.252-0.2-0.474-0.2-0.257 0-0.459 0.091-0.607 0.274-0.143 0.178-0.215 0.424-0.215 0.741v2.088h-0.926v-2.266c0-0.291-0.052-0.504-0.155-0.637-0.099-0.133-0.257-0.2-0.474-0.2-0.257 0-0.459 0.091-0.607 0.274-0.148 0.178-0.222 0.424-0.222 0.741v2.088h-0.918v-2.681c0-0.395-0.020-0.748-0.059-1.059h0.866l0.067 0.592c0.108-0.222 0.264-0.392 0.467-0.511 0.207-0.119 0.444-0.178 0.711-0.178 0.573 0 0.945 0.237 1.118 0.711 0.117-0.219 0.289-0.396 0.497-0.515l0.006-0.003c0.222-0.128 0.469-0.193 0.741-0.193zM19.88 28.328h-2.577c0.020 0.4 0.119 0.696 0.296 0.889 0.183 0.188 0.452 0.281 0.807 0.281 0.41 0 0.79-0.133 1.14-0.4l0.267 0.637c-0.178 0.143-0.398 0.259-0.659 0.348-0.257 0.084-0.518 0.126-0.785 0.126-0.612 0-1.094-0.173-1.444-0.518s-0.526-0.82-0.526-1.422c0-0.38 0.077-0.718 0.23-1.015s0.368-0.526 0.644-0.689c0.276-0.168 0.59-0.252 0.94-0.252 0.513 0 0.918 0.168 1.214 0.504 0.301 0.331 0.452 0.787 0.452 1.37v0.141zM18.236 26.981c-0.247 0-0.449 0.074-0.607 0.222-0.153 0.143-0.252 0.353-0.296 0.629h1.74c-0.030-0.281-0.116-0.494-0.259-0.637-0.138-0.143-0.331-0.215-0.578-0.215zM24.24 24.7v5.45h-0.911v-0.6c-0.115 0.207-0.281 0.374-0.482 0.486l-0.006 0.003c-0.212 0.113-0.454 0.17-0.726 0.17-0.321 0-0.607-0.081-0.859-0.244s-0.45-0.392-0.592-0.689c-0.138-0.301-0.207-0.644-0.207-1.029s0.069-0.723 0.207-1.015c0.138-0.291 0.333-0.516 0.585-0.674 0.252-0.163 0.541-0.244 0.866-0.244 0.267 0 0.504 0.057 0.711 0.17 0.208 0.105 0.375 0.265 0.486 0.461l0.003 0.006v-2.251h0.926zM22.359 29.484c0.306 0 0.543-0.106 0.711-0.318 0.173-0.212 0.259-0.513 0.259-0.903s-0.084-0.691-0.252-0.903c-0.168-0.212-0.405-0.318-0.711-0.318-0.311 0-0.553 0.106-0.726 0.318-0.168 0.207-0.252 0.504-0.252 0.889 0 0.39 0.084 0.694 0.252 0.911 0.173 0.217 0.412 0.326 0.718 0.326zM28.788 26.41l-1.74 3.991c-0.198 0.464-0.449 0.802-0.756 1.015s-0.684 0.353-1.133 0.422l-0.207-0.711c0.351-0.079 0.612-0.18 0.785-0.304 0.177-0.119 0.321-0.296 0.429-0.533l0.119-0.274-1.555-3.606h0.97l1.074 2.688 1.096-2.688h0.918z">
      </path>
      <path fill="#fff" style="fill: var(--color1, #fff)"
        d="M18.728 12.996c-0.081-0.073-0.189-0.117-0.307-0.117-0.136 0-0.258 0.059-0.342 0.153l-0 0c-0.959 1.072-2.343 1.687-3.797 1.687s-2.838-0.614-3.797-1.687c-0.085-0.099-0.21-0.161-0.349-0.161-0.254 0-0.46 0.206-0.46 0.46 0 0.122 0.047 0.232 0.124 0.315l-0-0c1.133 1.267 2.767 1.993 4.482 1.993s3.349-0.726 4.482-1.993c0.073-0.081 0.117-0.189 0.117-0.307 0-0.136-0.059-0.258-0.153-0.342l-0-0z">
      </path>
      <path fill="#fff" style="fill: var(--color1, #fff)"
        d="M14.282 0c-5.833 0-10.579 4.746-10.579 10.579s4.746 10.579 10.579 10.579 10.579-4.746 10.579-10.579-4.746-10.579-10.579-10.579zM14.282 20.238c-5.327 0-9.659-4.333-9.659-9.659s4.333-9.659 9.659-9.659c5.327 0 9.659 4.333 9.659 9.659s-4.333 9.659-9.659 9.659z">
      </path>
      <path fill="#fff" style="fill: var(--color1, #fff)"
        d="M17.962 7.359c-1.268 0-2.3 1.032-2.3 2.3 0.006 0.249 0.21 0.449 0.46 0.449s0.454-0.2 0.46-0.449v-0.001c0.001-0.762 0.618-1.379 1.38-1.38h0c0.762 0.001 1.379 0.618 1.38 1.38v0c0.006 0.249 0.21 0.449 0.46 0.449s0.454-0.2 0.46-0.449v-0.001c0-1.268-1.032-2.3-2.3-2.3zM11.982 9.659c0.006 0.249 0.21 0.449 0.46 0.449s0.454-0.2 0.46-0.449v-0.001c0-1.268-1.032-2.3-2.3-2.3s-2.3 1.032-2.3 2.3c0.006 0.249 0.21 0.449 0.46 0.449s0.454-0.2 0.46-0.449v-0.001c0.001-0.762 0.618-1.379 1.38-1.38h0c0.762 0.001 1.379 0.618 1.38 1.38v0z">
      </path>
    </symbol>

    <symbol id="icon-Documentary" viewBox="0 0 50 32">
      <path fill="#fff" style="fill: var(--color1, #fff)"
        d="M0.731 24.571h2.024c0.901 0 1.599 0.239 2.093 0.718 0.499 0.479 0.749 1.153 0.749 2.024 0 0.875-0.25 1.555-0.749 2.039-0.494 0.479-1.192 0.718-2.093 0.718h-2.024v-5.5zM2.693 29.26c1.267 0 1.9-0.649 1.9-1.947 0-1.288-0.633-1.931-1.9-1.931h-0.966v3.878h0.966zM8.314 30.132c-0.396 0-0.747-0.082-1.051-0.247-0.297-0.164-0.534-0.404-0.691-0.694l-0.005-0.009c-0.159-0.309-0.239-0.67-0.239-1.081s0.080-0.77 0.239-1.074c0.16-0.302 0.397-0.545 0.686-0.706l0.009-0.004c0.304-0.165 0.654-0.247 1.051-0.247 0.391 0 0.737 0.082 1.035 0.247 0.297 0.164 0.532 0.408 0.683 0.701l0.004 0.009c0.165 0.304 0.247 0.662 0.247 1.074s-0.082 0.772-0.247 1.081c-0.157 0.3-0.392 0.54-0.679 0.699l-0.009 0.004c-0.299 0.165-0.644 0.247-1.035 0.247zM8.306 29.375c0.33 0 0.579-0.106 0.749-0.317 0.175-0.216 0.263-0.535 0.263-0.958 0-0.417-0.087-0.734-0.263-0.95-0.175-0.222-0.422-0.332-0.742-0.332-0.324 0-0.574 0.111-0.749 0.332-0.175 0.216-0.263 0.533-0.263 0.95 0 0.422 0.085 0.742 0.255 0.958 0.175 0.211 0.425 0.317 0.749 0.317zM12.886 30.132c-0.407 0-0.76-0.082-1.058-0.247-0.294-0.162-0.529-0.399-0.683-0.686l-0.004-0.009c-0.16-0.304-0.239-0.659-0.239-1.066s0.082-0.765 0.247-1.074c0.167-0.304 0.409-0.549 0.702-0.714l0.009-0.005c0.309-0.175 0.664-0.263 1.066-0.263 0.278 0 0.546 0.044 0.803 0.131 0.263 0.087 0.471 0.209 0.626 0.363l-0.27 0.68c-0.15-0.124-0.324-0.226-0.513-0.297l-0.012-0.004c-0.162-0.067-0.351-0.107-0.548-0.108h-0.001c-0.35 0-0.623 0.111-0.819 0.332-0.196 0.216-0.294 0.531-0.294 0.942s0.095 0.726 0.286 0.942c0.196 0.216 0.471 0.324 0.827 0.324 0.18 0 0.363-0.036 0.548-0.108 0.201-0.080 0.375-0.184 0.529-0.312l-0.003 0.003 0.27 0.68c-0.165 0.154-0.379 0.276-0.641 0.363-0.243 0.083-0.524 0.131-0.816 0.131-0.004 0-0.008 0-0.011-0h0.001zM18.555 26.17v3.901h-0.943v-0.603c-0.124 0.216-0.289 0.381-0.494 0.494s-0.443 0.17-0.711 0.17c-0.953 0-1.429-0.535-1.429-1.607v-2.356h0.958v2.364c0 0.283 0.057 0.492 0.17 0.626 0.118 0.134 0.299 0.201 0.541 0.201 0.283 0 0.51-0.093 0.68-0.278s0.255-0.433 0.255-0.742v-2.171h0.973zM24.207 26.069c0.443 0 0.772 0.134 0.989 0.402 0.216 0.263 0.324 0.664 0.324 1.205v2.395h-0.966v-2.364c0-0.309-0.051-0.531-0.154-0.664-0.098-0.139-0.263-0.209-0.494-0.209-0.268 0-0.479 0.095-0.633 0.286-0.149 0.185-0.224 0.443-0.224 0.772v2.178h-0.966v-2.364c0-0.304-0.054-0.525-0.162-0.664-0.103-0.139-0.268-0.209-0.494-0.209-0.268 0-0.479 0.095-0.633 0.286-0.154 0.185-0.232 0.443-0.232 0.772v2.178h-0.958v-2.796c0-0.412-0.020-0.78-0.062-1.105h0.904l0.070 0.618c0.113-0.232 0.276-0.409 0.487-0.533 0.216-0.124 0.463-0.185 0.742-0.185 0.598 0 0.986 0.247 1.166 0.742 0.122-0.229 0.301-0.413 0.519-0.537l0.007-0.003c0.232-0.134 0.489-0.201 0.772-0.201zM29.965 28.17h-2.688c0.021 0.417 0.124 0.726 0.309 0.927 0.191 0.196 0.471 0.294 0.842 0.294 0.427 0 0.824-0.139 1.19-0.417l0.278 0.664c-0.185 0.149-0.415 0.27-0.688 0.363-0.244 0.083-0.526 0.131-0.819 0.131h-0c-0.639 0-1.141-0.18-1.506-0.541s-0.548-0.855-0.548-1.483c0-0.396 0.080-0.749 0.239-1.058s0.383-0.548 0.672-0.718c0.288-0.175 0.616-0.263 0.981-0.263 0.535 0 0.958 0.175 1.267 0.525 0.314 0.345 0.471 0.821 0.471 1.429v0.147zM28.25 26.765c-0.257 0-0.469 0.077-0.633 0.232-0.16 0.149-0.263 0.368-0.309 0.657h1.815c-0.031-0.294-0.121-0.515-0.27-0.664-0.144-0.149-0.345-0.224-0.603-0.224zM33.015 26.069c0.932 0 1.398 0.535 1.398 1.607v2.395h-0.966v-2.348c0-0.309-0.059-0.533-0.178-0.672-0.119-0.144-0.301-0.216-0.548-0.216-0.294 0-0.531 0.095-0.711 0.286-0.18 0.185-0.27 0.433-0.27 0.742v2.209h-0.958v-2.796c0-0.412-0.021-0.78-0.062-1.105h0.904l0.070 0.641c0.129-0.231 0.312-0.417 0.534-0.545l0.007-0.004c0.232-0.129 0.492-0.193 0.78-0.193zM36.665 26.896v1.746c0 0.458 0.214 0.688 0.641 0.688 0.118 0 0.247-0.021 0.386-0.062v0.765c-0.17 0.062-0.376 0.093-0.618 0.093-0.443 0-0.783-0.124-1.020-0.371s-0.355-0.603-0.355-1.066v-1.792h-0.749v-0.726h0.749v-0.95l0.966-0.324v1.275h1.035v0.726h-1.035zM42.095 26.17v3.901h-0.95v-0.626c-0.12 0.216-0.293 0.39-0.503 0.506l-0.007 0.003c-0.221 0.118-0.474 0.178-0.757 0.178-0.34 0-0.641-0.082-0.904-0.247s-0.466-0.399-0.61-0.703c-0.144-0.304-0.216-0.657-0.216-1.058s0.072-0.757 0.216-1.066c0.15-0.314 0.355-0.556 0.618-0.726 0.263-0.175 0.561-0.263 0.896-0.263 0.283 0 0.536 0.062 0.757 0.185 0.217 0.115 0.391 0.287 0.507 0.496l0.003 0.006v-0.587h0.95zM40.14 29.375c0.319 0 0.567-0.111 0.742-0.332s0.263-0.533 0.263-0.935c0-0.412-0.087-0.729-0.263-0.95s-0.425-0.332-0.749-0.332c-0.319 0-0.569 0.116-0.749 0.348-0.175 0.227-0.263 0.543-0.263 0.95 0 0.402 0.088 0.711 0.263 0.927 0.18 0.216 0.433 0.324 0.757 0.324zM45.248 26.077c0.15 0 0.278 0.021 0.386 0.062l-0.008 0.881c-0.151-0.064-0.326-0.1-0.509-0.1-0 0-0 0-0.001 0h0c-0.329 0-0.582 0.095-0.757 0.286-0.17 0.19-0.255 0.443-0.255 0.757v2.109h-0.958v-2.796c0-0.412-0.020-0.78-0.062-1.105h0.904l0.077 0.688c0.098-0.252 0.252-0.446 0.463-0.579s0.451-0.201 0.718-0.201zM50.098 26.17l-1.815 4.164c-0.206 0.484-0.469 0.837-0.788 1.058s-0.713 0.368-1.182 0.44l-0.216-0.742c0.366-0.082 0.638-0.188 0.819-0.317 0.185-0.124 0.335-0.309 0.448-0.556l0.124-0.286-1.622-3.762h1.012l1.12 2.804 1.143-2.804h0.958zM20.311 15.012h0.625c0.143 0 0.259-0.116 0.259-0.259s-0.116-0.259-0.259-0.259h-0.625c-0.143 0-0.259 0.116-0.259 0.259s0.116 0.259 0.259 0.259v0zM23.273 15.667h0.8c0.143 0 0.259-0.116 0.259-0.258s-0.116-0.258-0.259-0.258h-0.8c-0.139 0.005-0.25 0.119-0.25 0.259s0.111 0.254 0.25 0.259h0zM27.806 17.020h0.669c0.143 0 0.259-0.116 0.259-0.259s-0.116-0.259-0.259-0.259h-0.669c-0.143 0-0.259 0.116-0.259 0.259s0.116 0.259 0.259 0.259v0zM20.925 16.892c0 0.143 0.116 0.259 0.259 0.259v0h0.625c0.139-0.005 0.25-0.119 0.25-0.259s-0.111-0.254-0.25-0.259h-0.626c-0.143 0-0.259 0.116-0.259 0.258v0zM31.475 17.46c0 0 0 0 0 0 0 0.143 0.116 0.258 0.258 0.258 0 0 0 0 0 0h0.756c0.143 0 0.259-0.116 0.259-0.259s-0.116-0.259-0.259-0.259h-0.756c-0.143 0-0.259 0.116-0.259 0.259 0 0 0 0 0 0v0zM17.707 17.201h-0.756c-0.139 0.005-0.25 0.119-0.25 0.259s0.111 0.254 0.25 0.259h0.757c0.139-0.005 0.25-0.119 0.25-0.259s-0.111-0.254-0.25-0.259h-0zM26.022 15.093h0.626c0.139-0.005 0.25-0.119 0.25-0.259s-0.111-0.254-0.25-0.259h-0.626c-0.143 0-0.259 0.116-0.259 0.259s0.116 0.259 0.259 0.259v0zM23.911 11.502h1.836c0 0 0 0 0 0 0.143 0 0.259-0.116 0.259-0.258 0 0 0 0 0 0v0-1.235c0-0.65-0.527-1.177-1.177-1.177s-1.177 0.527-1.177 1.177v0 1.235c0 0.143 0.116 0.258 0.259 0.258 0 0 0 0 0 0v0zM24.169 10.009c0-0.364 0.295-0.66 0.66-0.66s0.66 0.295 0.66 0.66v0 0.976h-1.319v-0.976zM22.809 8.246c-0.143 0-0.259 0.116-0.259 0.259v0 0.199c0.005 0.139 0.119 0.25 0.259 0.25s0.254-0.111 0.259-0.25v-0.199c0-0 0-0 0-0 0-0.143-0.116-0.258-0.259-0.258 0 0 0 0 0 0v0zM22.809 9.229c-0.143 0-0.259 0.116-0.259 0.258v0 1.617c0.005 0.139 0.119 0.25 0.259 0.25s0.254-0.111 0.259-0.25v-1.617c0-0 0-0 0-0 0-0.143-0.116-0.258-0.259-0.258 0 0 0 0 0 0v0zM31.875 13.444c0-0.143-0.116-0.258-0.259-0.258-0 0-0 0-0 0h-0.713c-0.142 0.001-0.258 0.117-0.258 0.259 0 0.071 0.029 0.135 0.075 0.182l-0-0c0.047 0.047 0.111 0.076 0.183 0.076h0.713c0 0 0 0 0 0 0.143 0 0.259-0.116 0.259-0.258 0-0 0-0 0-0v0zM19.209 11.779c0-0.143-0.116-0.259-0.259-0.259h-0.713c-0.139 0.005-0.25 0.119-0.25 0.259s0.111 0.254 0.25 0.259h0.713c0.143 0 0.259-0.116 0.259-0.258v0z">
      </path>
      <path fill="#fff" style="fill: var(--color1, #fff)"
        d="M33.81 19.955v-9.086c0.376-0.010 0.676-0.317 0.676-0.694v0-2.356c0-0 0-0 0-0 0-0.143-0.116-0.258-0.258-0.258-0 0-0 0-0 0h-0.976c-0.143 0-0.258 0.116-0.258 0.258 0 0 0 0 0 0v0 0.527h-0.527v-0.527c0-0 0-0 0-0 0-0.143-0.116-0.258-0.258-0.258-0 0-0 0-0 0h-0.976c-0.143 0-0.259 0.116-0.259 0.258 0 0 0 0 0 0v0 0.527h-0.527v-0.527c0-0 0-0 0-0 0-0.143-0.116-0.258-0.259-0.258-0 0-0 0-0 0h-0.976c-0.143 0-0.259 0.116-0.259 0.258 0 0 0 0 0 0v0 2.356c0 0.377 0.301 0.684 0.675 0.694l0.001 0v1.491h-1.071c-0.143 0-0.258 0.116-0.259 0.258v0.527h-0.226v-5.526h0.438c0.142-0.001 0.258-0.116 0.258-0.259 0-0.068-0.026-0.129-0.068-0.175l0 0-3.611-3.899v-0.624l1.786-0.777c0.093-0.041 0.156-0.132 0.156-0.237 0-0.103-0.060-0.192-0.148-0.234l-0.002-0.001-1.825-0.857c-0.045-0.081-0.13-0.135-0.227-0.135-0.143 0-0.258 0.115-0.259 0.258v2.607l-3.612 3.899c-0.042 0.046-0.068 0.108-0.068 0.175 0 0.143 0.115 0.258 0.258 0.259h0.439v5.526h-0.227v-0.527c-0-0.143-0.116-0.258-0.259-0.258h-1.071v-1.491c0.375-0.011 0.676-0.317 0.676-0.694v-2.356c0-0.143-0.116-0.259-0.258-0.259h-0.977c-0.143 0-0.259 0.116-0.259 0.259v0 0.527h-0.527v-0.527c0-0.143-0.116-0.259-0.259-0.259h-0.977c-0.143 0-0.259 0.116-0.259 0.259v0 0.527h-0.527v-0.527c0-0.143-0.116-0.259-0.259-0.259v0h-0.977c-0.143 0-0.258 0.116-0.258 0.259v0 2.356c0 0.377 0.301 0.684 0.675 0.694l0.001 0v9.086c-0.668 0.029-1.199 0.577-1.2 1.25v0.186c0 0.143 0.116 0.259 0.258 0.259v0h19.845c0.143-0 0.258-0.116 0.258-0.258v-0.185c-0.001-0.673-0.532-1.221-1.197-1.25l-0.003-0zM25.088 1.142l1.055 0.496-1.055 0.46v-0.955zM29.468 10.175v-2.098h0.459v0.527c0 0 0 0 0 0 0 0.143 0.116 0.258 0.258 0.258 0 0 0 0 0 0h1.044c0 0 0 0 0 0 0.143 0 0.259-0.116 0.259-0.258 0 0 0 0 0 0v0-0.527h0.459v0.527c0 0 0 0 0 0 0 0.143 0.116 0.258 0.258 0.258 0 0 0 0 0 0h1.044c0 0 0 0 0 0 0.143 0 0.258-0.116 0.258-0.258 0 0 0 0 0 0v0-0.527h0.459v2.098c0 0 0 0 0 0 0 0.098-0.079 0.177-0.177 0.177-0 0-0 0-0 0v0h-4.146c-0.098-0.001-0.177-0.080-0.177-0.178v-0zM24.829 3.768l3.088 3.334h-4.166c-0.143 0-0.259 0.116-0.259 0.259s0.116 0.259 0.259 0.259h3.802v5.526h-0.178v-0.527c-0-0.143-0.116-0.258-0.259-0.258h-1.611c-0.143 0-0.259 0.116-0.259 0.258v0 0.527h-0.835v-0.527c-0-0.143-0.116-0.258-0.259-0.258h-1.611c-0.143 0-0.259 0.116-0.259 0.258v0 0.527h-0.178v-5.527h0.699c0.143 0 0.259-0.116 0.259-0.259s-0.116-0.259-0.259-0.259h-1.062l3.088-3.334zM20.843 12.878v0.527c0 0 0 0 0 0 0 0.143 0.116 0.258 0.259 0.258 0 0 0 0 0 0h1.439c0.143-0 0.259-0.116 0.259-0.259v0-0.527h1.094v0.527c0 0 0 0 0 0 0 0.143 0.116 0.258 0.259 0.258 0 0 0 0 0 0h1.353c0.143 0 0.259-0.116 0.259-0.259v0-0.527h1.094v0.527c0 0 0 0 0 0 0 0.143 0.116 0.258 0.259 0.258 0 0 0 0 0 0h1.439c0 0 0 0 0 0 0.143 0 0.259-0.116 0.259-0.258 0-0 0-0 0-0v0-0.527h1.009v1.356h-0.491c-0.143 0-0.259 0.116-0.259 0.259s0.116 0.259 0.259 0.259h0.491v2.127c0 0.143 0.116 0.259 0.259 0.259s0.259-0.116 0.259-0.259v0-1.124h0.665c0.143 0 0.259-0.116 0.259-0.259s-0.116-0.259-0.259-0.259h-0.665v-2.618c0-0 0-0 0-0 0-0.121-0.083-0.222-0.194-0.25l-0.002-0v-1.498h3.148v0.439h-0.684c-0 0-0 0-0.001 0-0.142 0-0.258 0.116-0.258 0.258 0 0 0 0.001 0 0.001v-0c0 0.143 0.116 0.258 0.258 0.258h0.684v7.425h-0.643c-0.143 0-0.259 0.116-0.259 0.259s0.116 0.259 0.259 0.259h0.643v0.185h-2.952v-2.173c-0-0.143-0.116-0.258-0.258-0.259h-0c-0 0-0 0-0 0-0.143 0-0.259 0.116-0.259 0.259 0 0 0 0 0 0v0 0.947h-0.534c-0.142 0.001-0.258 0.117-0.258 0.259 0 0.071 0.029 0.135 0.075 0.182l-0-0c0.047 0.047 0.111 0.076 0.183 0.076h0.534v0.708h-3.274v-1.239h1.1c0.143 0 0.259-0.116 0.259-0.259s-0.116-0.259-0.259-0.259h-1.101c-0.019-0.517-0.3-0.965-0.713-1.216l-0.007-0.004-0.866-0.517c-0.038-0.023-0.084-0.037-0.133-0.037s-0.095 0.014-0.134 0.037l0.001-0.001-0.866 0.517c-0.434 0.264-0.72 0.734-0.721 1.271v0.829h-0.704c-0.143 0-0.259 0.116-0.259 0.259s0.116 0.259 0.259 0.259h0.704v0.359h-3.274v-1.581h0.491c0.143 0 0.259-0.116 0.259-0.259s-0.116-0.259-0.259-0.259h-0.491v-4.978h1.009zM26.032 18.249v1.705h-2.406v-1.705c0.001-0.349 0.187-0.655 0.465-0.825l0.004-0.002 0.734-0.439 0.734 0.438c0.282 0.172 0.468 0.478 0.469 0.827v0zM15.689 10.175v-2.098h0.459v0.527c0 0.143 0.116 0.258 0.259 0.258 0 0 0 0 0 0h1.044c0.143-0 0.258-0.116 0.259-0.258v0-0.527h0.459v0.527c0 0.143 0.116 0.258 0.259 0.258 0 0 0 0 0 0h1.044c0.143-0 0.258-0.116 0.259-0.258v0-0.527h0.459v2.098c-0 0.098-0.079 0.177-0.177 0.178h-4.145c-0.098-0-0.178-0.080-0.178-0.178v0zM18.827 15.798h0.491v2.256c-0.005 0.018-0.007 0.039-0.007 0.060s0.003 0.042 0.008 0.062l-0-0.002v0.904h-0.665c-0.138 0.007-0.247 0.12-0.247 0.259s0.109 0.252 0.246 0.258l0.001 0h0.665v0.359h-2.952v-6.119h0.683c0.143 0 0.259-0.116 0.259-0.259s-0.116-0.259-0.259-0.259h-0.682v-2.447h3.148v1.498c-0.113 0.029-0.196 0.13-0.196 0.251 0 0 0 0 0 0v0 2.661h-0.491c-0.139 0.005-0.25 0.119-0.25 0.259s0.111 0.254 0.25 0.259h0zM15.169 21.132c0.039-0.373 0.351-0.661 0.731-0.661h17.859c0.38 0 0.692 0.288 0.731 0.658l0 0.003h-19.32z">
      </path>
    </symbol>

    <symbol id="icon-Drama" viewBox="0 0 27 32">
      <path fill="#fff" style="fill: var(--color1, #fff)"
        d="M0.647 25.91h2.134c0.95 0 1.686 0.253 2.207 0.758 0.527 0.505 0.79 1.216 0.79 2.134 0 0.923-0.263 1.64-0.79 2.15-0.521 0.505-1.257 0.758-2.207 0.758h-2.134v-5.8zM2.716 30.854c1.336 0 2.004-0.684 2.004-2.053 0-1.358-0.668-2.036-2.003-2.036h-1.018v4.089h1.018zM8.994 27.498c0.157 0 0.293 0.022 0.407 0.065l-0.008 0.929c-0.159-0.067-0.343-0.106-0.537-0.106-0 0-0 0-0 0h0c-0.348 0-0.614 0.1-0.798 0.301-0.179 0.201-0.269 0.467-0.269 0.798v2.224h-1.010v-2.949c0-0.434-0.022-0.823-0.065-1.165h0.953l0.081 0.725c0.103-0.266 0.266-0.47 0.489-0.611s0.475-0.212 0.758-0.212zM13.822 27.596v4.113h-1.002v-0.66c-0.126 0.228-0.309 0.411-0.531 0.534l-0.007 0.003c-0.234 0.125-0.499 0.187-0.798 0.187-0.358 0-0.676-0.087-0.953-0.261s-0.492-0.421-0.643-0.741c-0.152-0.32-0.228-0.692-0.228-1.116s0.076-0.798 0.228-1.124c0.157-0.331 0.375-0.586 0.652-0.766 0.277-0.185 0.592-0.277 0.945-0.277 0.299 0 0.565 0.065 0.798 0.195 0.229 0.122 0.413 0.303 0.534 0.523l0.003 0.007v-0.619h1.002zM11.762 30.976c0.337 0 0.597-0.117 0.782-0.35s0.277-0.562 0.277-0.986c0-0.434-0.092-0.768-0.277-1.002s-0.448-0.35-0.79-0.35c-0.337 0-0.6 0.122-0.79 0.367-0.185 0.239-0.277 0.573-0.277 1.002 0 0.424 0.092 0.749 0.277 0.977 0.19 0.228 0.456 0.342 0.798 0.342zM19.786 27.49c0.467 0 0.815 0.141 1.043 0.424 0.228 0.277 0.342 0.701 0.342 1.271v2.525h-1.018v-2.492c0-0.326-0.054-0.559-0.163-0.701-0.103-0.147-0.277-0.22-0.521-0.22-0.282 0-0.505 0.1-0.668 0.301-0.157 0.195-0.236 0.467-0.236 0.815v2.297h-1.018v-2.492c0-0.32-0.057-0.554-0.171-0.701-0.108-0.147-0.282-0.22-0.521-0.22-0.282 0-0.505 0.1-0.668 0.301-0.163 0.195-0.244 0.467-0.244 0.815v2.297h-1.010v-2.949c0-0.434-0.022-0.823-0.065-1.165h0.953l0.073 0.652c0.119-0.244 0.291-0.432 0.513-0.562 0.228-0.13 0.489-0.195 0.782-0.195 0.63 0 1.040 0.261 1.23 0.782 0.128-0.241 0.317-0.436 0.547-0.567l0.007-0.004c0.244-0.141 0.516-0.212 0.815-0.212zM26.192 27.596v4.113h-1.002v-0.66c-0.126 0.228-0.309 0.411-0.531 0.534l-0.007 0.003c-0.234 0.125-0.5 0.187-0.798 0.187-0.358 0-0.676-0.087-0.953-0.261s-0.492-0.421-0.643-0.741c-0.152-0.32-0.228-0.692-0.228-1.116s0.076-0.798 0.228-1.124c0.157-0.331 0.375-0.586 0.652-0.766 0.277-0.185 0.592-0.277 0.945-0.277 0.298 0 0.564 0.065 0.798 0.195 0.229 0.122 0.413 0.303 0.534 0.523l0.003 0.007v-0.619h1.002zM24.131 30.976c0.337 0 0.597-0.117 0.782-0.35s0.277-0.562 0.277-0.986c0-0.434-0.093-0.768-0.277-1.002s-0.448-0.35-0.79-0.35c-0.337 0-0.6 0.122-0.79 0.367-0.185 0.239-0.277 0.573-0.277 1.002 0 0.424 0.092 0.749 0.277 0.977 0.19 0.228 0.456 0.342 0.798 0.342z">
      </path>
      <path fill="#fff" style="fill: var(--color1, #fff)"
        d="M23.544 0.911l-0.375-0.094c-1.901-0.493-4.083-0.776-6.332-0.776s-4.431 0.283-6.513 0.816l0.181-0.039-0.375 0.094c-0.854 0.218-1.476 0.981-1.476 1.888 0 0.001 0 0.001 0 0.002v-0 2.713c-2.125 0.61-3.971 1.391-5.697 2.363l0.131-0.068-0.34 0.187c-0.602 0.337-1.002 0.972-1.002 1.699 0 0.18 0.025 0.355 0.071 0.521l-0.003-0.014 1.134 4.24c1.054 3.832 3.847 6.85 7.455 8.194l0.084 0.027 1.169 0.429c0.355 0.132 0.765 0.208 1.193 0.208 1.078 0 2.043-0.484 2.69-1.247l0.004-0.005 0.798-0.953c0.713-0.844 1.32-1.81 1.78-2.856l0.030-0.076c0.246-0.095 0.48-0.219 0.698-0.367l1.019-0.713c3.131-2.214 5.15-5.819 5.152-9.896v-4.386c0-0.001 0-0.001 0-0.002 0-0.908-0.621-1.67-1.462-1.885l-0.013-0.003zM15.744 20.593l-0.798 0.954c-0.506 0.597-1.257 0.974-2.095 0.974-0.333 0-0.652-0.059-0.947-0.168l0.019 0.006-1.169-0.428c-3.453-1.283-6.066-4.106-7.033-7.612l-0.019-0.079-1.135-4.24c-0.026-0.091-0.040-0.195-0.040-0.303 0-0.436 0.24-0.816 0.595-1.015l0.006-0.003 0.34-0.188c1.484-0.841 3.204-1.578 5.008-2.12l0.18-0.046v0.862c0.003 3.625 1.601 6.877 4.13 9.090l0.014 0.012c-0.628 0.263-1.357 0.446-2.118 0.513l-0.028 0.002-2.93 0.238c-0.201 0.017-0.358 0.184-0.358 0.389 0 0.157 0.093 0.293 0.227 0.354l0.002 0.001 3.884 1.754c0.236 0.11 0.513 0.174 0.804 0.174 0.649 0 1.225-0.318 1.579-0.806l0.004-0.006 0.85-1.183 0.111 0.078c0.559 0.395 1.255 0.631 2.007 0.631 0.002 0 0.003 0 0.005 0h-0c0.117 0 0.23-0.015 0.345-0.026-0.421 0.835-0.899 1.554-1.452 2.209l0.014-0.017zM13.487 16.844c0.106 0.078 0.21 0.162 0.319 0.239l0.27 0.189-0.845 1.175c-0.215 0.296-0.56 0.486-0.949 0.486-0.175 0-0.341-0.038-0.49-0.107l0.007 0.003-2.508-1.13 1.425-0.117c1.022-0.088 1.962-0.351 2.82-0.759l-0.049 0.021zM24.241 7.186c-0.002 3.814-1.891 7.186-4.784 9.234l-0.035 0.024-1.019 0.713c-0.436 0.307-0.979 0.491-1.564 0.491s-1.128-0.184-1.573-0.497l0.009 0.006-1.019-0.713c-2.929-2.071-4.818-5.443-4.82-9.257v-4.386c0-0.545 0.373-1.003 0.878-1.132l0.008-0.002 0.375-0.094c1.844-0.479 3.961-0.753 6.143-0.753s4.298 0.275 6.319 0.792l-0.176-0.038 0.375 0.094c0.512 0.131 0.885 0.589 0.885 1.134 0 0 0 0 0 0v0 4.386z">
      </path>
      <path fill="#fff" style="fill: var(--color1, #fff)"
        d="M15.393 7.314l0.531-0.57c-1.218-1.215-3.19-1.215-4.408 0l-0.020 0.019 0.57 0.532c0.423-0.423 1.008-0.685 1.653-0.685 0.655 0 1.248 0.27 1.672 0.704l0 0zM17.75 6.744l-0.019 0.019 0.57 0.532c0.423-0.423 1.008-0.685 1.654-0.685 0.655 0 1.248 0.27 1.672 0.704l0 0 0.532-0.57c-1.218-1.215-3.19-1.215-4.408 0zM7.303 12.961c0.182-0.051 0.39-0.080 0.606-0.080 0.441 0 0.854 0.122 1.206 0.334l-0.011-0.006 0.363-0.69c-1.491-0.861-3.397-0.35-4.258 1.14l-0.014 0.024 0.337 0.195 0.351 0.17c0.309-0.531 0.809-0.923 1.404-1.084l0.016-0.004zM21.054 10.941l-2.892 0.527c-0.876 0.159-1.773 0.159-2.649 0l-2.892-0.527c-0.021-0.004-0.046-0.006-0.070-0.006-0.215 0-0.39 0.174-0.39 0.39 0 0.121 0.056 0.23 0.143 0.301l0.001 0.001 3.3 2.699c0.333 0.273 0.764 0.439 1.234 0.439s0.9-0.166 1.237-0.441l-0.003 0.003 3.299-2.7c0.088-0.072 0.143-0.18 0.143-0.302 0-0.215-0.174-0.39-0.39-0.39-0.025 0-0.049 0.002-0.072 0.007l0.002-0v0.001zM17.578 13.722c-0.2 0.164-0.459 0.264-0.74 0.264s-0.54-0.099-0.742-0.265l0.002 0.002-2.133-1.745 1.409 0.256c0.968 0.177 1.96 0.177 2.927 0l1.409-0.256-2.132 1.745z">
      </path>
    </symbol>

    <symbol id="icon-Historical" viewBox="0 0 36 32">
      <path fill="#fff" style="fill: var(--color1, #fff)"
        d="M5.613 26.125v5.596h-1.006v-2.429h-2.869v2.429h-0.999v-5.596h0.998v2.342h2.869v-2.342h1.006zM6.756 27.752h0.975v3.969h-0.975v-3.969zM7.786 25.952v0.967h-1.093v-0.967h1.093zM10.26 31.784c-0.718 0-1.289-0.168-1.713-0.503l0.275-0.692c0.424 0.314 0.909 0.472 1.454 0.472 0.236 0 0.417-0.039 0.542-0.118 0.131-0.079 0.197-0.189 0.197-0.33 0-0.12-0.045-0.215-0.134-0.283-0.089-0.073-0.241-0.136-0.456-0.189l-0.66-0.149c-0.723-0.157-1.085-0.527-1.085-1.108 0-0.241 0.068-0.453 0.204-0.637 0.136-0.189 0.327-0.335 0.574-0.44s0.532-0.157 0.857-0.157c0.283 0 0.556 0.045 0.817 0.134 0.266 0.084 0.496 0.21 0.696 0.372l-0.004-0.003-0.291 0.668c-0.398-0.293-0.807-0.44-1.226-0.44-0.225 0-0.401 0.042-0.527 0.126s-0.189 0.199-0.189 0.346c0 0.115 0.037 0.207 0.11 0.275 0.079 0.068 0.209 0.126 0.393 0.173l0.676 0.149c0.393 0.089 0.678 0.228 0.857 0.417 0.183 0.183 0.275 0.424 0.275 0.723 0 0.367-0.147 0.658-0.44 0.872s-0.694 0.322-1.203 0.322zM13.955 28.49v1.776c0 0.466 0.217 0.7 0.652 0.7 0.121 0 0.252-0.021 0.393-0.063v0.778c-0.173 0.063-0.382 0.094-0.629 0.094-0.451 0-0.796-0.126-1.037-0.377s-0.362-0.613-0.362-1.085v-1.823h-0.762v-0.739h0.762v-0.967l0.982-0.33v1.297h1.053v0.739h-1.053zM17.483 31.784c-0.404 0-0.76-0.084-1.069-0.252-0.302-0.167-0.543-0.411-0.703-0.706l-0.005-0.009c-0.163-0.314-0.244-0.681-0.244-1.1s0.081-0.783 0.244-1.093c0.162-0.308 0.404-0.555 0.699-0.719l0.009-0.005c0.309-0.168 0.665-0.252 1.069-0.252 0.398 0 0.75 0.084 1.053 0.252 0.302 0.167 0.542 0.415 0.695 0.714l0.004 0.010c0.168 0.309 0.252 0.673 0.252 1.093s-0.084 0.786-0.252 1.1c-0.16 0.305-0.399 0.549-0.691 0.711l-0.009 0.004c-0.304 0.168-0.655 0.252-1.053 0.252zM17.475 31.013c0.335 0 0.59-0.108 0.762-0.322 0.178-0.22 0.267-0.545 0.267-0.975 0-0.424-0.089-0.747-0.267-0.967-0.178-0.225-0.429-0.338-0.755-0.338-0.33 0-0.584 0.113-0.762 0.338-0.178 0.22-0.267 0.542-0.267 0.967 0 0.43 0.086 0.755 0.259 0.975 0.178 0.215 0.432 0.322 0.762 0.322zM22.472 27.657c0.152 0 0.283 0.021 0.393 0.063l-0.008 0.896c-0.153-0.065-0.331-0.102-0.518-0.102-0 0-0 0-0.001 0h0c-0.335 0-0.592 0.097-0.77 0.291-0.173 0.194-0.259 0.451-0.259 0.77v2.146h-0.974v-2.845c0-0.419-0.021-0.794-0.063-1.124h0.92l0.079 0.7c0.1-0.257 0.257-0.453 0.472-0.59s0.459-0.204 0.731-0.204zM23.412 27.752h0.975v3.969h-0.975v-3.969zM24.442 25.952v0.967h-1.093v-0.967h1.093zM27.262 31.784c-0.414 0-0.773-0.084-1.077-0.252-0.299-0.164-0.538-0.406-0.695-0.698l-0.005-0.009c-0.163-0.309-0.244-0.671-0.244-1.085s0.084-0.778 0.252-1.093c0.17-0.31 0.416-0.558 0.714-0.726l0.009-0.005c0.314-0.178 0.676-0.267 1.085-0.267 0.283 0 0.555 0.045 0.817 0.134 0.267 0.089 0.479 0.212 0.637 0.369l-0.275 0.692c-0.152-0.126-0.329-0.23-0.522-0.302l-0.013-0.004c-0.165-0.068-0.357-0.108-0.557-0.11h-0.001c-0.357 0-0.634 0.113-0.833 0.338-0.199 0.22-0.299 0.54-0.299 0.959s0.097 0.739 0.291 0.959c0.199 0.22 0.479 0.33 0.841 0.33 0.183 0 0.369-0.037 0.558-0.11 0.205-0.082 0.381-0.188 0.538-0.317l-0.003 0.003 0.275 0.692c-0.168 0.157-0.385 0.28-0.652 0.369-0.248 0.085-0.533 0.134-0.83 0.134-0.004 0-0.008 0-0.011-0h0.001zM33.211 27.752v3.969h-0.967v-0.637c-0.122 0.22-0.299 0.397-0.512 0.515l-0.007 0.003c-0.225 0.12-0.482 0.181-0.77 0.181-0.346 0-0.652-0.084-0.92-0.252s-0.474-0.406-0.621-0.715c-0.147-0.309-0.22-0.668-0.22-1.077s0.073-0.77 0.22-1.085c0.152-0.32 0.362-0.566 0.629-0.739 0.267-0.178 0.571-0.267 0.912-0.267 0.288 0 0.545 0.063 0.77 0.189 0.221 0.117 0.398 0.292 0.515 0.504l0.003 0.006v-0.597h0.967zM31.222 31.013c0.325 0 0.576-0.113 0.755-0.338s0.267-0.542 0.267-0.951c0-0.419-0.089-0.741-0.267-0.967s-0.432-0.338-0.762-0.338c-0.325 0-0.579 0.118-0.762 0.354-0.178 0.23-0.267 0.553-0.267 0.967 0 0.409 0.089 0.723 0.267 0.943 0.183 0.22 0.44 0.33 0.77 0.33zM34.281 25.936h0.975v5.785h-0.975v-5.785z">
      </path>
      <path fill="#fff" style="fill: var(--color1, #fff)"
        d="M19.012 19.416c0.284-0.307 0.405-0.683 0.405-1.099 0-0.417-0.119-0.796-0.405-1.103-0.278-0.299-0.63-0.437-1.036-0.437s-0.762 0.134-1.043 0.432c-0.287 0.305-0.405 0.683-0.405 1.1 0 0.42 0.118 0.802 0.406 1.11 0.28 0.299 0.632 0.437 1.038 0.437 0.408 0 0.761-0.139 1.039-0.441zM17.517 18.921c-0.135-0.173-0.176-0.392-0.176-0.607 0-0.213 0.045-0.425 0.181-0.592 0.117-0.144 0.265-0.216 0.45-0.216 0.186 0 0.338 0.069 0.454 0.216 0.136 0.171 0.178 0.386 0.178 0.6s-0.045 0.427-0.179 0.597c-0.117 0.148-0.266 0.218-0.453 0.218-0.188 0-0.338-0.068-0.455-0.216zM16.094 16.827h-1.459c-0.099 0-0.186 0.038-0.255 0.111-0.067 0.071-0.103 0.156-0.103 0.255 0 0.103 0.036 0.193 0.109 0.264 0.068 0.065 0.15 0.103 0.245 0.103h0.341v1.883c0 0.108 0.040 0.202 0.115 0.278l0.001 0.003 0.003 0.001c0.079 0.071 0.174 0.114 0.281 0.114s0.198-0.042 0.271-0.118c0.074-0.077 0.114-0.17 0.114-0.278v-1.879h0.337c0.098 0 0.185-0.036 0.255-0.107s0.107-0.158 0.107-0.257c0-0.101-0.036-0.19-0.106-0.262-0.063-0.068-0.154-0.111-0.254-0.111-0.001 0-0.002 0-0.002 0h0zM13.268 19.024c-0.063 0.048-0.14 0.066-0.22 0.066-0.123 0-0.266-0.043-0.38-0.086-0.081-0.028-0.218-0.078-0.302-0.078-0.099 0-0.186 0.037-0.252 0.111-0.061 0.068-0.098 0.159-0.098 0.258 0 0.004 0 0.007 0 0.011v-0.001 0.020c0 0.191 0.15 0.312 0.309 0.387 0.214 0.102 0.46 0.133 0.693 0.133 0.303 0 0.598-0.073 0.83-0.279 0.218-0.194 0.319-0.442 0.319-0.734 0-0.308-0.119-0.559-0.383-0.72-0.163-0.104-0.385-0.174-0.57-0.227-0.091-0.024-0.165-0.048-0.237-0.075l0.016 0.005c-0.036-0.012-0.068-0.026-0.097-0.043l0.002 0.001c-0.024-0.020-0.051-0.047-0.051-0.081 0-0.047 0.024-0.079 0.059-0.107 0.052-0.038 0.113-0.053 0.177-0.053 0.061 0 0.139 0.020 0.197 0.036l0.111 0.038c0.068 0.022 0.159 0.051 0.231 0.051 0.101 0 0.186-0.040 0.253-0.114 0.067-0.073 0.101-0.163 0.101-0.262 0-0.173-0.118-0.291-0.261-0.369-0.178-0.096-0.383-0.128-0.582-0.128-0.292 0-0.564 0.077-0.789 0.268-0.211 0.182-0.318 0.417-0.318 0.698 0 0.267 0.098 0.49 0.323 0.636 0.067 0.045 0.149 0.080 0.225 0.109 0.111 0.042 0.225 0.078 0.339 0.112 0.106 0.031 0.23 0.067 0.33 0.113 0.027 0.013 0.065 0.034 0.081 0.061 0.013 0.025 0.021 0.055 0.021 0.087 0 0.001 0 0.002-0 0.004v-0c0 0.065-0.026 0.112-0.078 0.152zM23.241 19.721c0.077 0.074 0.169 0.117 0.276 0.117 0.109 0 0.205-0.042 0.28-0.123 0.073-0.079 0.113-0.173 0.113-0.281v-1.006l0.73-0.998c0.052-0.071 0.077-0.152 0.077-0.239 0-0.109-0.042-0.203-0.122-0.278-0.070-0.071-0.167-0.114-0.275-0.114v0c-0.135 0-0.245 0.059-0.321 0.171l-0.482 0.692-0.478-0.692c-0.066-0.104-0.181-0.171-0.311-0.171-0.004 0-0.007 0-0.011 0h0.001c-0.002-0-0.005-0-0.008-0-0.11 0-0.209 0.045-0.281 0.118l-0 0c-0.072 0.069-0.117 0.166-0.117 0.274 0 0 0 0 0 0v0c0 0.088 0.034 0.169 0.086 0.239l0.722 0.998v1.006c0 0.112 0.040 0.21 0.121 0.287zM22.059 17.785c0-0.273-0.095-0.508-0.3-0.691-0.209-0.186-0.466-0.263-0.745-0.263h-0.721c-0.111 0-0.208 0.038-0.285 0.117-0.072 0.072-0.117 0.171-0.117 0.281 0 0.003 0 0.006 0 0.010v-0 2.195c0 0.111 0.038 0.208 0.117 0.286l0.001 0.003 0.001 0.001c0.081 0.071 0.174 0.114 0.282 0.114 0.106 0 0.2-0.037 0.276-0.113s0.113-0.171 0.113-0.279v-0.634l0.702 0.864c0.079 0.098 0.181 0.163 0.309 0.163 0.107 0 0.202-0.038 0.282-0.112l0.003-0.001 0.001-0.002c0.072-0.080 0.115-0.173 0.115-0.281 0-0.098-0.036-0.184-0.102-0.257l-0.529-0.582c0.089-0.025 0.18-0.058 0.251-0.107 0.244-0.168 0.345-0.419 0.345-0.71zM21.197 17.973c-0.045 0.045-0.108 0.073-0.177 0.073-0.001 0-0.002 0-0.003-0h-0.332v-0.478h0.325c0.071 0 0.134 0.019 0.185 0.071l0.001 0.001 0.003 0.001c0.046 0.038 0.074 0.095 0.074 0.158 0 0.001 0 0.001 0 0.002v-0c0 0 0 0.001 0 0.002 0 0.067-0.029 0.128-0.076 0.17l-0 0zM9.526 19.726c0.076 0.077 0.17 0.115 0.278 0.115 0.109 0 0.204-0.041 0.28-0.12 0.073-0.077 0.113-0.169 0.113-0.276v-2.247c0-0.11-0.039-0.207-0.116-0.287-0.069-0.072-0.167-0.117-0.275-0.117-0.001 0-0.002 0-0.002 0h0c-0.108 0-0.202 0.046-0.276 0.124-0.073 0.078-0.117 0.171-0.117 0.279v0.718h-1.030v-0.718c0-0.109-0.038-0.205-0.113-0.283-0.068-0.074-0.165-0.121-0.274-0.121-0.001 0-0.002 0-0.002 0h0c-0.109 0-0.204 0.045-0.28 0.124-0.072 0.071-0.116 0.17-0.117 0.279v2.247c0 0.109 0.038 0.205 0.117 0.282 0.077 0.076 0.171 0.114 0.28 0.114s0.202-0.038 0.277-0.115c0.076-0.077 0.112-0.173 0.112-0.281v-0.796h1.030v0.796c0 0.109 0.038 0.203 0.115 0.281zM10.871 16.92c-0.073 0.078-0.117 0.171-0.117 0.279v2.243c0 0.108 0.038 0.204 0.114 0.281s0.171 0.115 0.278 0.115c0.108 0 0.202-0.038 0.278-0.115 0.076-0.076 0.114-0.169 0.114-0.277v-2.247c0-0.109-0.037-0.205-0.113-0.283-0.068-0.074-0.165-0.12-0.274-0.12-0.001 0-0.002 0-0.002 0h0c-0.109 0-0.204 0.045-0.28 0.124z">
      </path>
      <path fill="#fff" style="fill: var(--color1, #fff)"
        d="M26.506 7.006h-16.462l16.161-3.124c0.206-0.041 0.358-0.22 0.358-0.435 0-0.030-0.003-0.059-0.009-0.087l0 0.003-0.488-2.522c-0.041-0.206-0.22-0.358-0.434-0.358-0.030 0-0.059 0.003-0.087 0.009l0.003-0-4.631 0.895c-0.012 0.002-0.022 0.004-0.032 0.006l0.003-0.001-16.039 3.1c-0.206 0.041-0.358 0.22-0.358 0.434 0 0.030 0.003 0.059 0.009 0.087l-0-0.003 0.48 2.48v14.042c0 0.244 0.198 0.442 0.442 0.442h8.445c0.003 0 0.007 0 0.011 0 0.244 0 0.442-0.198 0.442-0.442s-0.198-0.442-0.442-0.442c-0.004 0-0.008 0-0.012 0h-8.002v-10.63h20.2v10.63h-8.214c-0.003-0-0.007-0-0.011-0-0.244 0-0.442 0.198-0.442 0.442s0.198 0.442 0.442 0.442c0.004 0 0.008-0 0.012-0h8.656c0.244 0 0.442-0.198 0.442-0.442v-14.084c0-0.244-0.198-0.442-0.442-0.442zM19.417 9.576l1.265-1.685h2.461l-1.265 1.685h-2.461zM15.849 9.576l1.264-1.685h2.462l-1.264 1.685h-2.461zM12.281 9.576l1.265-1.685h2.461l-1.264 1.685h-2.462zM8.714 9.576l1.265-1.685h2.461l-1.265 1.685h-2.461zM5.864 7.449c0.006-0.245 0.207-0.442 0.453-0.442s0.446 0.196 0.453 0.441v0.001c-0.006 0.245-0.207 0.441-0.453 0.441s-0.446-0.196-0.453-0.441v-0.001zM10.371 4.327l1.769 1.374-2.348 0.454-1.768-1.374 2.348-0.454zM13.873 3.649l1.769 1.374-2.347 0.454-1.769-1.374 2.348-0.454zM17.376 2.973l1.768 1.374-2.347 0.454-1.769-1.374 2.347-0.454zM20.879 2.296l1.768 1.374-2.348 0.454-1.768-1.374 2.348-0.454zM25.603 3.098l-1.802 0.348-1.768-1.374 3.25-0.629 0.32 1.654zM6.869 5.003l1.768 1.375-1.27 0.245c-0.247-0.312-0.625-0.51-1.050-0.51-0.246 0-0.477 0.067-0.675 0.183l0.006-0.003-0.197-1.015 1.417-0.274zM5.864 8.706c0.134 0.050 0.289 0.079 0.451 0.079 0 0 0.001 0 0.002 0h-0c0.579-0.001 1.073-0.369 1.259-0.885l0.003-0.009h1.295l-1.265 1.685h-1.745v-0.869zM22.984 9.576l1.265-1.685h1.815v1.685h-3.080z">
      </path>
      <path fill="#fff" style="fill: var(--color1, #fff)"
        d="M24.278 15.17c0.244 0 0.442-0.198 0.442-0.442v-1.809c0-0.244-0.198-0.442-0.442-0.442h-16.878c-0.244 0-0.442 0.198-0.442 0.442v1.809c0 0.244 0.198 0.442 0.442 0.442h16.878zM23.836 14.286h-4.921v-0.925h4.921v0.925zM18.031 14.286h-5.113v-0.925h5.113v0.925zM7.843 13.361h4.19v0.925h-4.19v-0.925zM15.874 21.091h-0.007c-0.244 0-0.442 0.198-0.442 0.442s0.198 0.442 0.442 0.442v0h0.007c0.003 0 0.007 0 0.011 0 0.244 0 0.442-0.198 0.442-0.442s-0.198-0.442-0.442-0.442c-0.004 0-0.008 0-0.012 0h0.001z">
      </path>
    </symbol>

    <symbol id="icon-Horror" viewBox="0 0 26 32">
      <path fill="#fff" style="fill: var(--color1, #fff)"
        d="M5.758 25.91v5.8h-1.042v-2.517h-2.973v2.517h-1.035v-5.8h1.035v2.427h2.973v-2.427h1.043zM8.808 31.774c-0.418 0-0.787-0.087-1.108-0.261-0.313-0.173-0.563-0.426-0.728-0.732l-0.005-0.010c-0.168-0.326-0.253-0.706-0.253-1.14s0.084-0.812 0.253-1.132c0.168-0.319 0.419-0.575 0.724-0.745l0.009-0.005c0.32-0.174 0.689-0.261 1.108-0.261 0.413 0 0.777 0.087 1.091 0.261 0.313 0.173 0.561 0.43 0.72 0.739l0.005 0.010c0.174 0.32 0.261 0.698 0.261 1.132s-0.087 0.815-0.261 1.14c-0.165 0.316-0.414 0.569-0.716 0.737l-0.009 0.005c-0.315 0.174-0.679 0.261-1.091 0.261zM8.8 30.976c0.348 0 0.611-0.111 0.79-0.334 0.185-0.228 0.277-0.565 0.277-1.010 0-0.44-0.092-0.774-0.277-1.002-0.185-0.234-0.445-0.35-0.782-0.35-0.342 0-0.605 0.117-0.79 0.35-0.185 0.228-0.277 0.562-0.277 1.002 0 0.445 0.090 0.782 0.269 1.010 0.185 0.223 0.448 0.334 0.79 0.334zM13.979 27.498c0.158 0 0.293 0.022 0.407 0.065l-0.008 0.929c-0.159-0.067-0.343-0.106-0.537-0.106-0 0-0 0-0 0h0c-0.347 0-0.614 0.1-0.798 0.301-0.179 0.201-0.269 0.467-0.269 0.798v2.224h-1.010v-2.949c0-0.434-0.022-0.823-0.065-1.165h0.953l0.081 0.725c0.103-0.266 0.266-0.47 0.489-0.611s0.475-0.212 0.758-0.212zM17.168 27.498c0.157 0 0.293 0.022 0.407 0.065l-0.008 0.929c-0.159-0.067-0.343-0.106-0.537-0.106-0 0-0 0-0 0h0c-0.348 0-0.614 0.1-0.798 0.301-0.179 0.201-0.269 0.467-0.269 0.798v2.224h-1.010v-2.949c0-0.434-0.022-0.823-0.065-1.165h0.953l0.081 0.725c0.103-0.266 0.266-0.47 0.489-0.611s0.475-0.212 0.758-0.212zM19.929 31.774c-0.418 0-0.788-0.087-1.108-0.261-0.313-0.173-0.563-0.426-0.728-0.732l-0.005-0.010c-0.168-0.326-0.252-0.706-0.252-1.14s0.084-0.812 0.252-1.132c0.168-0.319 0.419-0.575 0.724-0.745l0.009-0.005c0.321-0.174 0.69-0.261 1.108-0.261 0.413 0 0.776 0.087 1.091 0.261 0.313 0.173 0.561 0.43 0.721 0.739l0.005 0.010c0.174 0.32 0.26 0.698 0.26 1.132s-0.087 0.815-0.26 1.14c-0.166 0.316-0.414 0.569-0.716 0.737l-0.009 0.005c-0.315 0.174-0.679 0.261-1.091 0.261zM19.92 30.976c0.348 0 0.611-0.111 0.79-0.334 0.184-0.228 0.277-0.565 0.277-1.010 0-0.44-0.093-0.774-0.277-1.002-0.184-0.234-0.445-0.35-0.782-0.35-0.342 0-0.605 0.117-0.79 0.35-0.184 0.228-0.277 0.562-0.277 1.002 0 0.445 0.090 0.782 0.269 1.010 0.184 0.223 0.448 0.334 0.79 0.334zM25.099 27.498c0.157 0 0.293 0.022 0.407 0.065l-0.008 0.929c-0.159-0.067-0.343-0.106-0.537-0.106-0 0-0 0-0 0h0c-0.348 0-0.614 0.1-0.798 0.301-0.179 0.201-0.269 0.467-0.269 0.798v2.224h-1.010v-2.949c0-0.434-0.022-0.823-0.065-1.165h0.953l0.081 0.725c0.103-0.266 0.266-0.47 0.489-0.611s0.475-0.212 0.758-0.212z">
      </path>
      <path fill="#fff" style="fill: var(--color1, #fff)"
        d="M23.831 7.304c-0.199-0.465-0.653-0.785-1.182-0.785-0.218 0-0.424 0.054-0.603 0.151l0.007-0.003c-0.663 0.35-1.226 0.704-1.76 1.094l0.040-0.028v-0.202c0-0.014 0-0.030 0-0.047 0-4.159-3.372-7.53-7.53-7.53s-7.53 3.372-7.53 7.53c0 0.016 0 0.033 0 0.049v-0.003 0.202c-0.495-0.363-1.057-0.717-1.645-1.030l-0.076-0.037c-0.174-0.094-0.381-0.15-0.601-0.15-0.709 0-1.283 0.574-1.283 1.283 0 0.409 0.192 0.774 0.49 1.009l0.003 0.002c1.079 0.885 2.015 1.885 2.809 2.994l0.032 0.047c-0.155 1.247-0.378 2.483-0.666 3.706l-1.011 4.114c-0.006 0.023-0.009 0.049-0.009 0.076 0 0.156 0.113 0.287 0.262 0.313l0.002 0 1.189 0.207c0.437 0.078 0.802 0.337 1.021 0.695l0.004 0.007 0.145 0.24c0.381 0.623 1.058 1.032 1.83 1.032 0.081 0 0.16-0.004 0.239-0.013l-0.010 0.001 0.28-0.031c0.048-0.006 0.105-0.009 0.161-0.009 0.392 0 0.748 0.15 1.015 0.396l-0.001-0.001 0.187 0.172c0.379 0.349 0.886 0.563 1.444 0.563 0.313 0 0.61-0.067 0.877-0.188l-0.013 0.005 0.25-0.111c0.178-0.081 0.387-0.128 0.606-0.128s0.428 0.047 0.616 0.131l-0.009-0.004 0.25 0.111c0.254 0.116 0.551 0.183 0.864 0.183 0.558 0 1.065-0.214 1.445-0.565l-0.001 0.001 0.187-0.172c0.266-0.245 0.623-0.395 1.015-0.395 0.057 0 0.113 0.003 0.168 0.009l-0.007-0.001 0.28 0.031c0.069 0.008 0.149 0.012 0.231 0.012 0.772 0 1.448-0.409 1.823-1.023l0.005-0.009 0.145-0.24c0.222-0.365 0.587-0.624 1.015-0.701l0.009-0.001 1.19-0.208c0.151-0.027 0.264-0.157 0.264-0.314 0-0.027-0.003-0.053-0.010-0.078l0 0.002-1.010-4.111c-0.25-0.995-0.484-2.254-0.649-3.535l-0.018-0.174c0.825-1.156 1.761-2.155 2.813-3.019l0.027-0.022c0.299-0.236 0.49-0.599 0.49-1.006 0-0.18-0.037-0.352-0.105-0.507l0.003 0.008zM23.052 8.307c-1.164 0.953-2.169 2.037-3.014 3.242l-0.034 0.052c-0.040 0.063-0.058 0.137-0.049 0.211 0.186 1.521 0.43 2.844 0.745 4.14l-0.050-0.243 0.929 3.782-0.854 0.149c-0.623 0.111-1.143 0.48-1.455 0.991l-0.005 0.009-0.145 0.24c-0.268 0.437-0.742 0.724-1.284 0.724-0.056 0-0.112-0.003-0.167-0.009l0.007 0.001-0.281-0.031c-0.070-0.008-0.15-0.013-0.232-0.013-0.558 0-1.065 0.214-1.445 0.564l0.001-0.001-0.187 0.172c-0.265 0.245-0.622 0.396-1.013 0.396-0.22 0-0.428-0.047-0.616-0.132l0.009 0.004-0.249-0.111c-0.254-0.115-0.551-0.183-0.864-0.183s-0.61 0.067-0.877 0.188l0.013-0.005-0.249 0.111c-0.178 0.081-0.387 0.128-0.606 0.128-0.391 0-0.748-0.15-1.014-0.396l0.001 0.001-0.187-0.172c-0.379-0.349-0.886-0.563-1.444-0.563-0.082 0-0.162 0.005-0.241 0.014l0.010-0.001-0.281 0.031c-0.048 0.005-0.104 0.009-0.16 0.009-0.542 0-1.017-0.287-1.281-0.717l-0.004-0.007-0.145-0.24c-0.317-0.52-0.837-0.889-1.447-0.998l-0.013-0.002-0.854-0.149 0.93-3.785c0.264-1.052 0.508-2.374 0.676-3.72l0.018-0.174c0.001-0.011 0.002-0.025 0.002-0.038 0-0.064-0.019-0.124-0.052-0.174l0.001 0.001c-0.878-1.256-1.883-2.339-3.018-3.27l-0.028-0.022c-0.148-0.12-0.242-0.301-0.242-0.505 0-0.357 0.29-0.647 0.647-0.647 0.109 0 0.212 0.027 0.303 0.075l-0.003-0.002c0.807 0.423 1.502 0.885 2.144 1.408l-0.023-0.018c0.055 0.045 0.126 0.073 0.203 0.073 0.173 0 0.313-0.137 0.318-0.309v-0c0.007-0.284 0.013-0.567 0.013-0.851 0-3.807 3.087-6.894 6.894-6.894s6.894 3.087 6.894 6.894v0c0 0.284 0.006 0.567 0.012 0.851 0.005 0.172 0.145 0.31 0.318 0.31 0.077 0 0.148-0.027 0.203-0.073l-0.001 0c0.619-0.505 1.314-0.966 2.052-1.356l0.069-0.033c0.087-0.047 0.191-0.074 0.301-0.074 0.266 0 0.495 0.161 0.594 0.392l0.002 0.004c0.033 0.074 0.052 0.161 0.052 0.252 0 0.203-0.095 0.385-0.243 0.502l-0.001 0.001z">
      </path>
      <path fill="#fff" style="fill: var(--color1, #fff)"
        d="M10.448 4.023c-0.733 0-1.329 0.729-1.329 1.625s0.596 1.625 1.329 1.625c0.733 0 1.329-0.729 1.329-1.625s-0.595-1.625-1.329-1.625zM10.448 6.636c-0.376 0-0.693-0.453-0.693-0.989s0.318-0.989 0.693-0.989c0.375 0 0.693 0.453 0.693 0.989s-0.317 0.989-0.693 0.989zM15.153 4.023c-0.733 0-1.329 0.729-1.329 1.625s0.596 1.625 1.329 1.625c0.733 0 1.329-0.729 1.329-1.625s-0.596-1.625-1.329-1.625zM15.153 6.636c-0.376 0-0.693-0.453-0.693-0.989s0.317-0.989 0.693-0.989c0.375 0 0.693 0.453 0.693 0.989s-0.318 0.989-0.693 0.989zM12.8 7.068c-0.771 0-1.375 0.923-1.375 2.102s0.604 2.102 1.375 2.102 1.375-0.923 1.375-2.102-0.604-2.102-1.375-2.102zM12.8 10.636c-0.349 0-0.739-0.627-0.739-1.466s0.39-1.466 0.739-1.466 0.739 0.627 0.739 1.466c0 0.839-0.39 1.466-0.739 1.466z">
      </path>
    </symbol>

    <symbol id="icon-Romance" viewBox="0 0 37 32">
      <path fill="#fff" style="fill: var(--color1, #fff)"
        d="M5.54 31.71h-1.108l-0.741-1.931c-0.065-0.179-0.166-0.304-0.302-0.375s-0.312-0.106-0.529-0.106h-1.050v2.411h-1.043v-5.8h2.484c0.657 0 1.156 0.144 1.499 0.432s0.513 0.701 0.513 1.238c0 0.385-0.103 0.714-0.31 0.986-0.201 0.266-0.489 0.456-0.863 0.57 0.342 0.071 0.589 0.31 0.741 0.717l0.709 1.857zM3.104 28.484c0.396 0 0.689-0.073 0.88-0.22s0.285-0.369 0.285-0.668c0-0.293-0.095-0.511-0.285-0.652-0.185-0.147-0.478-0.22-0.88-0.22h-1.311v1.759h1.311zM8.278 31.775c-0.418 0-0.788-0.087-1.108-0.261-0.313-0.173-0.563-0.426-0.728-0.732l-0.005-0.010c-0.168-0.326-0.253-0.706-0.253-1.14s0.084-0.812 0.253-1.132c0.168-0.319 0.419-0.575 0.724-0.745l0.009-0.005c0.32-0.174 0.689-0.261 1.108-0.261 0.413 0 0.776 0.087 1.092 0.261 0.313 0.173 0.561 0.43 0.72 0.74l0.005 0.010c0.174 0.32 0.261 0.698 0.261 1.132s-0.087 0.815-0.261 1.14c-0.165 0.316-0.414 0.569-0.716 0.737l-0.009 0.005c-0.315 0.174-0.679 0.261-1.092 0.261zM8.27 30.977c0.347 0 0.611-0.111 0.79-0.334 0.184-0.228 0.277-0.565 0.277-1.010 0-0.44-0.092-0.774-0.277-1.002-0.185-0.234-0.445-0.35-0.782-0.35-0.342 0-0.606 0.117-0.79 0.35-0.185 0.228-0.277 0.562-0.277 1.002 0 0.445 0.090 0.782 0.269 1.010 0.184 0.223 0.448 0.334 0.79 0.334zM16.088 27.49c0.467 0 0.815 0.141 1.043 0.424 0.228 0.277 0.342 0.701 0.342 1.271v2.525h-1.018v-2.493c0-0.326-0.054-0.559-0.163-0.701-0.103-0.147-0.277-0.22-0.521-0.22-0.282 0-0.505 0.1-0.668 0.301-0.157 0.195-0.236 0.467-0.236 0.815v2.297h-1.018v-2.493c0-0.32-0.057-0.554-0.171-0.701-0.108-0.147-0.282-0.22-0.521-0.22-0.282 0-0.505 0.1-0.668 0.301-0.163 0.195-0.244 0.467-0.244 0.815v2.297h-1.010v-2.949c0-0.434-0.022-0.823-0.065-1.165h0.953l0.073 0.652c0.119-0.244 0.291-0.432 0.513-0.562 0.228-0.13 0.489-0.195 0.782-0.195 0.63 0 1.040 0.261 1.23 0.782 0.128-0.241 0.317-0.436 0.547-0.567l0.007-0.004c0.244-0.141 0.516-0.212 0.815-0.212zM22.494 27.596v4.114h-1.002v-0.66c-0.126 0.228-0.309 0.411-0.531 0.534l-0.007 0.003c-0.234 0.125-0.5 0.187-0.798 0.187-0.358 0-0.676-0.087-0.953-0.261s-0.492-0.421-0.644-0.741c-0.152-0.32-0.228-0.692-0.228-1.116s0.076-0.798 0.228-1.124c0.157-0.331 0.375-0.587 0.652-0.766 0.277-0.185 0.592-0.277 0.945-0.277 0.299 0 0.564 0.065 0.798 0.195 0.229 0.122 0.413 0.303 0.534 0.523l0.003 0.007v-0.619h1.002zM20.433 30.977c0.337 0 0.597-0.117 0.782-0.35s0.277-0.562 0.277-0.986c0-0.434-0.093-0.768-0.277-1.002s-0.448-0.35-0.79-0.35c-0.337 0-0.6 0.122-0.79 0.367-0.185 0.239-0.277 0.573-0.277 1.002 0 0.424 0.092 0.749 0.277 0.977 0.19 0.228 0.456 0.342 0.798 0.342zM25.957 27.49c0.983 0 1.474 0.565 1.474 1.694v2.525h-1.018v-2.476c0-0.326-0.063-0.562-0.188-0.709-0.125-0.152-0.317-0.228-0.578-0.228-0.31 0-0.559 0.1-0.749 0.301-0.19 0.195-0.285 0.456-0.285 0.782v2.33h-1.010v-2.949c0-0.434-0.022-0.823-0.065-1.165h0.953l0.073 0.676c0.136-0.243 0.329-0.439 0.563-0.575l0.007-0.004c0.244-0.136 0.519-0.204 0.823-0.204zM30.377 31.775c-0.429 0-0.801-0.087-1.116-0.261-0.31-0.17-0.558-0.421-0.72-0.724l-0.005-0.009c-0.169-0.32-0.253-0.695-0.253-1.124s0.087-0.806 0.261-1.132c0.176-0.321 0.431-0.579 0.74-0.753l0.009-0.005c0.326-0.185 0.701-0.277 1.124-0.277 0.293 0 0.575 0.046 0.847 0.138 0.277 0.092 0.497 0.22 0.66 0.383l-0.285 0.717c-0.158-0.131-0.341-0.238-0.541-0.313l-0.013-0.004c-0.171-0.071-0.37-0.112-0.578-0.114h-0.001c-0.369 0-0.657 0.117-0.863 0.35-0.207 0.228-0.31 0.559-0.31 0.994s0.1 0.766 0.301 0.994c0.206 0.228 0.497 0.342 0.872 0.342 0.19 0 0.383-0.038 0.578-0.114 0.212-0.085 0.395-0.195 0.557-0.329l-0.003 0.003 0.285 0.717c-0.174 0.163-0.399 0.291-0.676 0.383-0.257 0.088-0.553 0.139-0.86 0.139-0.004 0-0.008 0-0.012-0h0.001zM36.208 29.706h-2.835c0.022 0.44 0.13 0.766 0.326 0.977 0.201 0.206 0.497 0.31 0.888 0.31 0.451 0 0.869-0.147 1.254-0.44l0.293 0.701c-0.196 0.157-0.437 0.285-0.725 0.383-0.258 0.088-0.555 0.138-0.863 0.138h-0c-0.673 0-1.203-0.19-1.588-0.57s-0.578-0.902-0.578-1.564c0-0.418 0.084-0.79 0.253-1.116s0.404-0.578 0.709-0.758c0.304-0.185 0.649-0.277 1.035-0.277 0.565 0 1.010 0.185 1.336 0.554 0.331 0.364 0.497 0.866 0.497 1.507v0.155zM34.4 28.223c-0.272 0-0.494 0.081-0.668 0.244-0.168 0.157-0.277 0.388-0.326 0.692h1.914c-0.033-0.31-0.128-0.543-0.285-0.701-0.152-0.157-0.364-0.236-0.635-0.236z">
      </path>
      <path fill="#fff" style="fill: var(--color1, #fff)"
        d="M29.746 9.385c0-1.676-0.637-3.248-1.794-4.426-1.163-1.184-2.723-1.837-4.392-1.837-0.003 0-0.006 0-0.009 0-2.174 0-4.089 1.111-5.208 2.796l-0.014 0.023c-1.133-1.708-3.048-2.819-5.223-2.819-0.003 0-0.006 0-0.010 0h0.001c-1.669 0-3.229 0.653-4.392 1.837-1.156 1.178-1.794 2.75-1.794 4.426 0 1.571 0.455 2.489 0.82 3.228l0.040 0.080c1.513 3.065 9.971 10.095 10.331 10.393l0.226 0.188 0.227-0.187c0.009-0.007 0.806-0.665 1.942-1.651 0.539 0.484 1.161 1.023 1.791 1.553l0.119 0.097 0.226 0.188 0.227-0.187c0.222-0.183 5.454-4.509 6.349-6.399l0.025-0.052c0.216-0.454 0.512-1.077 0.512-2.024 0-0.822-0.241-1.6-0.696-2.264 0.306-0.656 0.696-1.603 0.696-2.962zM28.591 16.329l-0.025 0.054c-0.729 1.538-4.906 5.104-5.932 5.965-0.742-0.627-1.359-1.167-1.968-1.716l0.072 0.064c-1.245-1.12-2.243-2.095-2.948-2.875-0.165-0.181-0.334-0.377-0.499-0.579l-0.020-0.026c-0.043-0.053-0.098-0.123-0.152-0.193l-0.016-0.021c-0.183-0.241-0.318-0.451-0.404-0.625l-0.015-0.030c-0.208-0.421-0.444-0.898-0.444-1.736 0-1.823 1.404-3.252 3.197-3.252 1.212 0 2.316 0.667 2.88 1.741l0.315 0.599 0.315-0.599c0.554-1.043 1.634-1.741 2.876-1.741 0.001 0 0.003 0 0.004 0h-0c0.998 0 1.919 0.453 2.527 1.243 0.443 0.576 0.678 1.271 0.678 2.009 0 0.786-0.236 1.281-0.443 1.718zM28.541 11.742l-0.005-0.004c-0.039-0.038-0.079-0.075-0.12-0.111l-0.021-0.019c-0.084-0.074-0.175-0.148-0.27-0.217l-0.011-0.008-0.012-0.008c-0.043-0.031-0.087-0.061-0.131-0.090l-0.020-0.014c-0.083-0.055-0.184-0.115-0.288-0.17l-0.020-0.010-0.017-0.009c-0.047-0.024-0.094-0.047-0.141-0.070l-0.018-0.009c-0.084-0.040-0.193-0.086-0.305-0.126l-0.026-0.008-0.022-0.008c-0.050-0.017-0.1-0.034-0.151-0.049l-0.015-0.005c-0.026-0.009-0.079-0.024-0.133-0.037l-0.026-0.006-0.031-0.008c-0.027-0.008-0.081-0.020-0.135-0.031l-0.024-0.004-0.027-0.005c-0.030-0.007-0.084-0.016-0.14-0.025l-0.022-0.003-0.009-0.001c-0.056-0.008-0.111-0.015-0.168-0.020l-0.032-0.003c-0.041-0.004-0.098-0.008-0.155-0.011l-0.010-0-0.031-0.001c-0.053-0.003-0.116-0.004-0.179-0.004-1.305 0-2.462 0.632-3.182 1.607l-0.008 0.011c-0.728-0.985-1.885-1.618-3.19-1.618-0.002 0-0.004 0-0.006 0h0c-0.198 0-0.394 0.015-0.586 0.043-0.867 0.131-1.621 0.535-2.191 1.12l-0.001 0.001c-0.729 0.745-1.131 1.739-1.131 2.8 0 1.005 0.287 1.586 0.517 2.052l0.015 0.030c0.014 0.028 0.028 0.056 0.044 0.084l0.015 0.028 0.033 0.060 0.021 0.035 0.033 0.056c0.008 0.013 0.017 0.026 0.025 0.040l0.035 0.055c0.009 0.014 0.019 0.029 0.028 0.043 0.012 0.018 0.024 0.037 0.037 0.055 0.010 0.015 0.021 0.030 0.031 0.045l0.039 0.056 0.034 0.048 0.042 0.057 0.037 0.050 0.044 0.059 0.040 0.052c0.067 0.086 0.112 0.143 0.158 0.2l-0.019-0.024c0.082 0.101 0.147 0.18 0.214 0.257l-0.013-0.016 0.051 0.060c0.053 0.062 0.089 0.103 0.126 0.145l-0.014-0.017 0.060 0.068c0.080 0.090 0.138 0.155 0.197 0.219l-0.019-0.021c0.052 0.057 0.094 0.102 0.136 0.147l-0.009-0.009 0.068 0.073 0.065 0.069 0.070 0.074 0.068 0.071 0.073 0.076 0.070 0.072 0.077 0.079 0.071 0.073 0.082 0.083 0.071 0.072 0.087 0.087c0.074 0.073 0.149 0.148 0.226 0.222l0.007 0.007 0.082 0.080 0.087 0.084c0.029 0.028 0.058 0.056 0.088 0.084l0.086 0.083c0.030 0.029 0.061 0.058 0.091 0.087l0.089 0.084 0.093 0.087c0.031 0.029 0.061 0.058 0.093 0.087s0.064 0.060 0.096 0.090l0.093 0.087 0.101 0.094c0.073 0.068 0.169 0.157 0.266 0.245l0.030 0.027 0.167 0.153c-0.379 0.333-0.911 0.788-1.447 1.239l-0.188 0.154c-1.379-1.158-8.607-7.309-9.92-9.97l-0.040-0.081c-0.35-0.706-0.746-1.507-0.746-2.912 0-3.113 2.404-5.551 5.474-5.551 0.002 0 0.004 0 0.007 0 2.121 0 3.964 1.192 4.895 2.943l0.015 0.030 0.315 0.6 0.315-0.599c0.946-1.781 2.789-2.973 4.91-2.973 0.002 0 0.005 0 0.007 0h-0c3.070 0 5.474 2.438 5.474 5.551 0 1.023-0.243 1.775-0.493 2.357zM13.415-0.001h-0.712v2.216h0.712v-2.216zM16.135 0.646l-0.931 2.011 0.646 0.299 0.931-2.011-0.646-0.299zM9.984 0.645l-0.646 0.299 0.93 2.011 0.646-0.299-0.93-2.011z">
      </path>
      <path fill="#fff" style="fill: var(--color1, #fff)"
        d="M9.142 9.773c0-0.033 0-0.067 0.001-0.1l-0.712-0.015c-0.001 0.038-0.001 0.076-0.001 0.115 0 0.477 0.048 0.913 0.148 1.33l0.692-0.166c-0.087-0.363-0.129-0.743-0.129-1.164zM10.107 5.861c-0.853 0.801-1.424 1.885-1.609 3.051l0.703 0.111c0.16-1.011 0.655-1.95 1.394-2.644l-0.488-0.519zM18.531 12.129c-0.979 0.454-1.619 1.418-1.67 2.515l0.711 0.033c0.039-0.831 0.522-1.56 1.259-1.902l-0.3-0.646z">
      </path>
    </symbol>

    <symbol id="icon-Sci-fi" viewBox="0 0 30 32">
      <path fill="#fff" style="fill: var(--color1, #fff)"
        d="M8.144 31.806c-0.398 0-0.772-0.053-1.122-0.16-0.345-0.107-0.638-0.26-0.881-0.459l0.321-0.685c0.252 0.189 0.515 0.33 0.787 0.422 0.277 0.087 0.578 0.131 0.903 0.131 0.36 0 0.636-0.063 0.83-0.189 0.199-0.126 0.299-0.304 0.299-0.532 0-0.194-0.092-0.342-0.277-0.444-0.18-0.107-0.479-0.206-0.896-0.299-0.651-0.141-1.124-0.323-1.421-0.546s-0.445-0.549-0.445-0.976c0-0.306 0.083-0.578 0.248-0.816s0.398-0.425 0.699-0.561c0.306-0.136 0.658-0.204 1.056-0.204 0.364 0 0.709 0.056 1.034 0.168 0.33 0.107 0.6 0.257 0.809 0.452l-0.313 0.685c-0.461-0.369-0.971-0.554-1.53-0.554-0.335 0-0.6 0.070-0.794 0.211-0.194 0.136-0.291 0.323-0.291 0.561 0 0.204 0.085 0.359 0.255 0.466 0.175 0.107 0.471 0.206 0.889 0.299 0.432 0.102 0.784 0.214 1.056 0.335 0.272 0.117 0.481 0.27 0.627 0.459 0.146 0.184 0.219 0.418 0.219 0.699 0 0.311-0.083 0.583-0.248 0.816-0.165 0.228-0.403 0.406-0.714 0.532s-0.678 0.189-1.1 0.189zM12.679 31.799c-0.384 0-0.716-0.078-0.998-0.233-0.277-0.152-0.499-0.376-0.644-0.647l-0.004-0.009c-0.151-0.286-0.226-0.622-0.226-1.005s0.078-0.721 0.233-1.013c0.157-0.287 0.385-0.518 0.662-0.673l0.008-0.004c0.291-0.165 0.627-0.248 1.005-0.248 0.262 0 0.515 0.041 0.758 0.124 0.248 0.082 0.444 0.197 0.59 0.342l-0.255 0.641c-0.141-0.117-0.305-0.213-0.484-0.28l-0.012-0.004c-0.153-0.063-0.331-0.1-0.517-0.102h-0.001c-0.33 0-0.588 0.104-0.772 0.313-0.185 0.204-0.277 0.5-0.277 0.889s0.090 0.685 0.27 0.889c0.185 0.204 0.444 0.306 0.779 0.306 0.17 0 0.342-0.034 0.517-0.102 0.19-0.076 0.353-0.174 0.498-0.294l-0.003 0.003 0.255 0.641c-0.155 0.146-0.357 0.26-0.605 0.342-0.23 0.079-0.494 0.124-0.769 0.124-0.004 0-0.007 0-0.011-0h0.001zM14.675 28.062h0.903v3.679h-0.903v-3.679zM15.629 26.394v0.896h-1.013v-0.896h1.013zM16.581 29.409h2.193v0.728h-2.193v-0.728zM20.927 28.062h2.419v3.679h-0.911v-2.994h-1.508v2.994h-0.911v-2.994h-0.707v-0.685h0.707v-0.372c0-0.33 0.051-0.59 0.153-0.779 0.102-0.194 0.267-0.335 0.495-0.422 0.233-0.087 0.549-0.131 0.947-0.131h0.27v0.67h-0.175c-0.228 0-0.396 0.020-0.503 0.058-0.103 0.031-0.184 0.109-0.218 0.209l-0.001 0.002c-0.039 0.102-0.058 0.267-0.058 0.495v0.27zM23.403 26.357v0.918h-1.027v-0.918h1.027z">
      </path>
      <path fill="#fff" style="fill: var(--color1, #fff)"
        d="M14.356 19.21l-3.904-4.114c-0.048-0.050-0.077-0.119-0.077-0.194 0-0.080 0.034-0.153 0.088-0.204l0-0 6.408-6.082c1.272-0.969 2.94-1.219 5.099-0.764 0.114 0.025 0.201 0.116 0.22 0.23l0 0.002c0.343 2.182 0.005 3.834-1.031 5.053-0.007 0.008-0.013 0.015-0.020 0.022l-0 0-6.386 6.061c-0.050 0.048-0.118 0.077-0.194 0.077-0.080 0-0.152-0.033-0.203-0.086l-0-0zM11.053 14.913l3.517 3.706 6.171-5.857c0.899-1.064 1.194-2.466 0.923-4.396-1.913-0.371-3.328-0.149-4.439 0.692l-6.172 5.856z">
      </path>
      <path fill="#fff" style="fill: var(--color1, #fff)"
        d="M9.033 14.445c-0.048-0.050-0.077-0.119-0.077-0.194 0-0.006 0-0.013 0.001-0.019l-0 0.001 0.038-0.56c0.074-1.188 0.835-2.18 1.887-2.591l0.020-0.007 0.034-0.013c0.487-0.185 1.050-0.292 1.638-0.292 0.682 0 1.33 0.144 1.916 0.404l-0.030-0.012c0.093 0.047 0.156 0.142 0.156 0.251 0 0.080-0.034 0.153-0.088 0.204l-0 0-2.87 2.724c-0.050 0.048-0.118 0.077-0.194 0.077-0.025 0-0.049-0.003-0.073-0.009l0.002 0c-0.253-0.061-0.543-0.095-0.842-0.095-0.434 0-0.85 0.073-1.238 0.209l0.026-0.008c-0.030 0.012-0.064 0.018-0.1 0.018-0.063 0-0.121-0.021-0.168-0.056l0.001 0.001c-0.014-0.010-0.026-0.021-0.038-0.032l-0-0zM10.999 11.339l0.098 0.263c-0.868 0.34-1.484 1.146-1.541 2.102l-0 0.007-0.010 0.158c0.303-0.077 0.65-0.121 1.008-0.121 0.293 0 0.578 0.029 0.854 0.085l-0.027-0.005 2.434-2.31c-0.369-0.115-0.794-0.181-1.234-0.181-0.521 0-1.020 0.092-1.481 0.262l0.030-0.010-0.128-0.252zM14.933 20.663c-0.048-0.050-0.078-0.119-0.078-0.194 0-0.041 0.009-0.080 0.025-0.115l-0.001 0.002c0.17-0.413 0.269-0.893 0.269-1.397 0-0.229-0.021-0.454-0.060-0.672l0.003 0.023c-0.004-0.017-0.006-0.036-0.006-0.056 0-0.080 0.034-0.152 0.087-0.204l0-0 2.871-2.725c0.050-0.048 0.119-0.077 0.194-0.077 0.114 0 0.213 0.068 0.257 0.166l0.001 0.002c0.189 0.492 0.299 1.061 0.299 1.656 0 0.675-0.141 1.317-0.396 1.898l0.012-0.030-0.015 0.034c-0.471 1.043-1.498 1.759-2.693 1.769h-0.001l-0.561 0.008c-0.001 0-0.002 0-0.004 0-0.080 0-0.153-0.034-0.204-0.088l-0-0zM15.672 18.352c0.088 0.612 0.042 1.237-0.136 1.83l0.158-0.003c0.97-0.006 1.803-0.584 2.18-1.413l0.006-0.015 0.271 0.081-0.259-0.109c0.211-0.49 0.334-1.061 0.334-1.661 0-0.361-0.044-0.712-0.128-1.047l0.006 0.030-2.431 2.308zM18.009 11.836c-0.252-0.265-0.407-0.624-0.407-1.020 0-0.818 0.663-1.481 1.481-1.481s1.481 0.663 1.481 1.481c0 0.423-0.177 0.804-0.461 1.074l-0.001 0.001c-0.265 0.252-0.624 0.406-1.020 0.406-0.423 0-0.804-0.177-1.074-0.46l-0.001-0.001zM19.749 10.184c-0.169-0.184-0.41-0.298-0.678-0.298-0.508 0-0.919 0.411-0.919 0.919 0 0.251 0.1 0.478 0.263 0.644l-0-0c0.167 0.17 0.399 0.275 0.656 0.275 0.508 0 0.919-0.411 0.919-0.919 0-0.24-0.092-0.458-0.242-0.621l0.001 0.001zM13.312 19.799l-3.503-3.691c-0.048-0.050-0.077-0.119-0.077-0.194 0-0.080 0.034-0.153 0.088-0.204l0-0 0.843-0.8c0.050-0.048 0.118-0.077 0.194-0.077 0.080 0 0.153 0.034 0.204 0.088l0 0 3.503 3.691c0.048 0.050 0.077 0.119 0.077 0.194 0 0.080-0.034 0.153-0.088 0.204l-0 0-0.843 0.801c-0.050 0.048-0.118 0.077-0.194 0.077-0.080 0-0.153-0.034-0.204-0.087l-0-0zM10.41 15.925l3.116 3.283 0.435-0.413-3.116-3.283-0.435 0.413z">
      </path>
      <path fill="#fff" style="fill: var(--color1, #fff)"
        d="M7.85 21.502c-0.142-0.163-0.228-0.378-0.228-0.613 0-0.156 0.038-0.303 0.105-0.432l-0.002 0.005c0.215-0.509 0.378-1.099 0.461-1.716l0.004-0.036c0.166-1.027 0.297-1.839 2.101-2.64 0.034-0.015 0.073-0.024 0.114-0.024 0.080 0 0.153 0.034 0.204 0.087l0 0 2.715 2.861c0.048 0.050 0.077 0.119 0.077 0.194 0 0.047-0.011 0.090-0.031 0.129l0.001-0.002c-0.235 0.495-0.533 0.919-0.89 1.284l0.001-0.001c-0.576 0.546-1.165 0.616-1.848 0.696-0.599 0.052-1.19 0.181-1.756 0.382-0.113 0.052-0.245 0.083-0.384 0.083-0.25 0-0.476-0.098-0.644-0.258l-0.001-0.001zM10.34 16.667c-1.354 0.641-1.441 1.182-1.595 2.134-0.095 0.701-0.271 1.336-0.521 1.931l0.019-0.050c-0.076 0.18-0.070 0.342 0.016 0.433s0.245 0.103 0.426 0.036c0.551-0.203 1.191-0.35 1.855-0.411l0.030-0.002c0.654-0.078 1.086-0.128 1.526-0.545 0.268-0.274 0.496-0.589 0.673-0.934l0.010-0.021-2.439-2.57z">
      </path>
      <path fill="#fff" style="fill: var(--color1, #fff)"
        d="M9.773 19.664c-0.095-0.108-0.153-0.251-0.153-0.408 0-0.099 0.023-0.192 0.065-0.275l-0.002 0.004c0.113-0.276 0.19-0.566 0.229-0.862 0.085-0.518 0.158-0.964 1.002-1.381 0.036-0.018 0.079-0.029 0.124-0.029 0.080 0 0.153 0.034 0.204 0.088l0 0 1.452 1.53c0.048 0.050 0.077 0.119 0.077 0.194 0 0.050-0.013 0.097-0.036 0.138l0.001-0.001c-0.112 0.209-0.246 0.389-0.403 0.546v0c-0.272 0.24-0.629 0.388-1.022 0.393h-0.001c-0.295 0.026-0.585 0.090-0.864 0.189-0.072 0.032-0.155 0.050-0.243 0.050-0.167 0-0.318-0.066-0.429-0.174l-0.001-0.001zM10.98 17.343c-0.413 0.244-0.448 0.458-0.515 0.87-0.050 0.369-0.143 0.703-0.275 1.017l0.010-0.026c-0.010 0.019-0.016 0.042-0.016 0.066 0 0.004 0 0.007 0 0.011l-0-0c0-0.006 0.026-0.005 0.067-0.020 0.291-0.108 0.628-0.185 0.979-0.218l0.016-0.001c0.008 0 0.017 0 0.027 0 0.257 0 0.493-0.091 0.676-0.244l-0.002 0.001c0.073-0.072 0.138-0.152 0.193-0.238l-1.158-1.219zM13.54 16.077c-0.048-0.050-0.077-0.119-0.077-0.194 0-0.080 0.034-0.153 0.088-0.204l0-0 1.196-1.135c0.050-0.048 0.118-0.077 0.194-0.077 0.155 0 0.281 0.126 0.281 0.281 0 0.080-0.034 0.153-0.088 0.204l-0 0-1.196 1.135c-0.050 0.048-0.119 0.077-0.194 0.077-0.080 0-0.153-0.034-0.204-0.088l-0-0zM12.635 15.113c-0.048-0.050-0.077-0.119-0.077-0.194 0-0.080 0.034-0.153 0.088-0.204l0-0 0.526-0.499c0.050-0.048 0.119-0.077 0.194-0.077 0.155 0 0.281 0.126 0.281 0.281 0 0.080-0.034 0.153-0.087 0.204l-0 0-0.526 0.499c-0.050 0.048-0.118 0.077-0.194 0.077-0.080 0-0.153-0.034-0.204-0.088l-0-0zM14.453 17.028c-0.048-0.050-0.077-0.119-0.077-0.194 0-0.080 0.034-0.153 0.088-0.204l0-0 0.526-0.499c0.051-0.050 0.12-0.081 0.197-0.081 0.155 0 0.281 0.126 0.281 0.281 0 0.082-0.035 0.156-0.091 0.207l-0 0-0.526 0.499c-0.050 0.048-0.119 0.077-0.194 0.077-0.080 0-0.153-0.034-0.204-0.088l-0-0z">
      </path>
    </symbol>

    <symbol id="close-burger" viewBox="0 0 32 32">
      <path
        d="M23.734 10.304l-1.504-1.504-5.963 5.962-5.962-5.962-1.504 1.504 5.962 5.962-5.962 5.963 1.504 1.504 5.962-5.963 5.963 5.963 1.504-1.504-5.963-5.963 5.963-5.962z">
      </path>
    </symbol>

    <symbol id="open-burger" viewBox="0 0 32 32">
      <path
        d="M6.4 11.734v-2.134h19.2v2.134h-19.2zM6.4 17.066h19.2v-2.133h-19.2v2.133zM6.4 22.4h19.2v-2.134h-19.2v2.134z">
      </path>
    </symbol>
    <symbol id="search-icon" viewBox="0 0 32 32">
      <path stroke="#fff" stroke-linecap="round" stroke-linejoin="round" stroke-width="2"
        d="m19 19-6-6 6 6ZM15 8a7.002 7.002 0 0 1-9.679 6.467A7 7 0 1 1 15 8Z" />
    </symbol>
    <symbol id="bell-icon" viewBox="0 0 32 32">
      <path fill="#fff"
        d="M9.967 23.518c.42-.01.823-.178 1.137-.473.315-.294.521-.698.583-1.138H8.18c.063.452.279.865.607 1.162a1.72 1.72 0 0 0 1.18.449Z" />
      <path stroke="#fff"
        d="M9.967 23.518c.42-.01.823-.178 1.137-.473.315-.294.521-.698.583-1.138H8.18c.063.452.279.865.607 1.162a1.72 1.72 0 0 0 1.18.449Z" />
      <path fill="#fff"
        d="M19.772 18.415a9.821 9.821 0 0 1-1.685-2.01 8.808 8.808 0 0 1-.906-3.298V9.72a7.637 7.637 0 0 0-.107-1.228 4.928 4.928 0 0 1-1.504-.576c.179.586.27 1.197.269 1.81v3.388a9.928 9.928 0 0 0 1.107 4.012c.464.75 1.013 1.44 1.638 2.057H1.396a11.048 11.048 0 0 0 1.638-2.057 9.927 9.927 0 0 0 1.107-4.012V9.72a6.15 6.15 0 0 1 .44-2.315A6.047 6.047 0 0 1 5.857 5.44 5.9 5.9 0 0 1 7.77 4.123a5.797 5.797 0 0 1 2.263-.466c1.136.001 2.248.345 3.194.988a5.24 5.24 0 0 1-.174-1.2v-.432a6.99 6.99 0 0 0-2.229-.686v-.864a.926.926 0 0 0-.262-.647.886.886 0 0 0-1.267 0 .926.926 0 0 0-.262.647v.898a7.213 7.213 0 0 0-4.47 2.486A7.509 7.509 0 0 0 2.793 9.72v3.387a8.806 8.806 0 0 1-.906 3.299 9.826 9.826 0 0 1-1.658 2.009.685.685 0 0 0-.228.514v.933c0 .182.07.356.197.485.125.128.296.2.474.2H19.33a.664.664 0 0 0 .474-.2.693.693 0 0 0 .197-.485v-.933a.697.697 0 0 0-.228-.514Z" />
      <path fill="url(#a)"
        d="M17.967 7.067c1.84 0 3.333-1.582 3.333-3.534C21.3 1.582 19.808 0 17.967 0c-1.841 0-3.334 1.582-3.334 3.533 0 1.952 1.493 3.534 3.334 3.534Z" />
      <path stroke="#fff"
        d="M17.967 7.067c1.84 0 3.333-1.582 3.333-3.534C21.3 1.582 19.808 0 17.967 0c-1.841 0-3.334 1.582-3.334 3.533 0 1.952 1.493 3.534 3.334 3.534Z" />
    </symbol>
    <symbol id="add-acount-icon" viewBox="0 0 32 32">
      <path fill="#fff"
        d="M13.185 12.69a4.184 4.184 0 0 1 1.95-.48h.003c.072 0 .106-.083.053-.13a8.938 8.938 0 0 0-2.486-1.543l-.028-.011c1.488-1.057 2.456-2.775 2.456-4.713C15.133 2.602 12.478 0 9.201 0c-3.276 0-5.93 2.602-5.93 5.813 0 1.938.969 3.656 2.46 4.713-.01.005-.02.007-.03.011a8.944 8.944 0 0 0-2.858 1.89 8.743 8.743 0 0 0-1.927 2.8 8.592 8.592 0 0 0-.705 3.237.184.184 0 0 0 .054.136.192.192 0 0 0 .138.056h1.435a.19.19 0 0 0 .192-.183 6.919 6.919 0 0 1 2.1-4.788 7.197 7.197 0 0 1 5.074-2.06c1.359 0 2.662.368 3.787 1.057a.196.196 0 0 0 .194.007ZM9.204 9.843c-1.098 0-2.131-.42-2.91-1.181A4.008 4.008 0 0 1 5.4 7.354a3.968 3.968 0 0 1 .894-4.393 4.128 4.128 0 0 1 2.91-1.18c1.1 0 2.13.419 2.91 1.18.383.374.686.819.893 1.308a3.968 3.968 0 0 1-.894 4.393 4.136 4.136 0 0 1-2.91 1.18Zm8.815 5.578h-2.013v-1.969a.19.19 0 0 0-.192-.187h-1.342a.19.19 0 0 0-.192.187v1.969h-2.013a.19.19 0 0 0-.192.187v1.313a.19.19 0 0 0 .192.187h2.013v1.97a.19.19 0 0 0 .192.187h1.342a.19.19 0 0 0 .192-.188V17.11h2.013a.19.19 0 0 0 .192-.187v-1.313a.19.19 0 0 0-.192-.187Z" />
    </symbol>
    <symbol id="play-icon" viewBox="0 0 25 32">
      <path fill="#fff" style="fill: var(--color1, #fff)"
        d="M23.631 18.477l-19.795 13.125c-1.68 1.113-3.836-0.235-3.836-2.478v-26.251c0-2.24 2.153-3.591 3.836-2.474l19.795 13.125c0.382 0.249 0.7 0.61 0.921 1.044s0.337 0.929 0.337 1.432-0.116 0.997-0.337 1.432c-0.221 0.435-0.539 0.795-0.921 1.044z">
      </path>
    </symbol>
    <symbol id="star" viewBox="0 0 32 32">
      <path fill="#ffb800" style="fill: var(--color2, #ffb800)"
        d="M7.227 30.897c-0.772 0.396-1.649-0.298-1.493-1.184l1.661-9.463-7.048-6.714c-0.658-0.628-0.316-1.777 0.566-1.901l9.799-1.393 4.37-8.657c0.394-0.78 1.461-0.78 1.855 0l4.37 8.657 9.799 1.393c0.882 0.124 1.224 1.272 0.566 1.901l-7.049 6.714 1.661 9.463c0.156 0.886-0.72 1.581-1.493 1.184l-8.785-4.514-8.779 4.514z">
      </path>
    </symbol>
  </defs>
</svg>